{
.appVersion = "3151";
.formatVersion = 3;
DisplayStrings = (
"ÁÁĂĂÂÂÄÄÀÀĀĀĄĄÅÅǺǺÃÃǼǼĆĆČČÇÇĈĈĊĊÐÐĎĎĐĐÉÉĔĔĚĚÊÊËËĖĖÈÈĒĒĘĘĞĞĜĜĠĠĦĦĤĤÍÍĬĬÎÎÏÏİİÌÌĪĪĮĮĨĨĴĴĹĹŃŃŇŇÑÑÓÓŎŎÔÔÖÖÒÒŐŐŌŌǾǾÕÕŔŔŘŘŚŚŠŠŞŞŜŜŦŦŤŤÚÚŬŬÛÛÜÜÙÙŰŰŪŪŲŲŮŮŨŨẂẂŴŴẄẄẀẀÝÝŶŶŸŸỲỲŹŹŽŽŻŻŢŢááăăââääààāāąąååǻǻããǽǽććččççĉĉċċďďđđééĕĕěěêêëëėėèèēēęęğğĝĝġġħħĥĥííĭĭîîïïììīīįįĩĩĵĵĺĺľľŀńńŉŉňňññóóŏŏôôööòòőőōōǿǿõõŕŕřřśśššşşŝŝŧŧťťúúŭŭûûüüùùűűūūţţųųůůũũẃẃŵŵẅẅẁẁýýŷŷÿÿỳỳźźžžżżﬂﬂ"
);
customParameters = (
{
name = descriptions;
value = "";
},
{
name = licenses;
value = "This Font Software is licensed under the SIL Open Font License, Version 1.1. This license is available with a FAQ at: http://scripts.sil.org/OFL";
},
{
name = licenseURL;
value = "http://scripts.sil.org/OFL";
},
{
name = sampleTexts;
value = "";
},
{
name = uniqueID;
value = "EduardoRodriguezTunni: Mate Italic: 2011";
},
{
name = versionString;
value = "Version 2.001";
},
{
name = codePageRanges;
value = (
"1252",
"1250",
"1254",
"1257",
"bit 29"
);
},
{
name = openTypeOS2FamilyClass;
value = (
0,
0
);
},
{
name = panose;
value = (
2,
0,
0,
0,
0,
0,
0,
0,
0,
0
);
},
{
name = openTypeOS2SubscriptXOffset;
value = 0;
},
{
name = openTypeOS2SubscriptXSize;
value = 700;
},
{
name = openTypeOS2SubscriptYOffset;
value = 140;
},
{
name = openTypeOS2SubscriptYSize;
value = 650;
},
{
name = openTypeOS2SuperscriptXOffset;
value = 0;
},
{
name = openTypeOS2SuperscriptXSize;
value = 700;
},
{
name = openTypeOS2SuperscriptYOffset;
value = 477;
},
{
name = openTypeOS2SuperscriptYSize;
value = 650;
},
{
name = unicodeRanges;
value = (
0,
1,
2,
3,
5,
7,
29,
31,
33,
35,
38,
45,
62
);
},
{
name = vendorID;
value = TIPO;
},
{
name = trademarks;
value = "Mate is a trademark of Eduardo Rodriguez Tunni.";
},
{
name = year;
value = 2011;
}
);
date = "2023-02-22 16:13:11 +0000";
familyName = Mate;
featurePrefixes = (
{
code = "languagesystem DFLT dflt;
languagesystem latn dflt; # Latin default
";
name = Languagesystems;
},
{
code = "#
# Feature definitions
#

###

glyphs = (
{
glyphname = A;
layers = (
{
layerId = master01;
shapes = (
{
closed = 1;
nodes = (
(129,0,l),
(137,26,l),
(61,56,l),
(144,215,l),
(406,229,l),
(431,55,l),
(403,46,o),
(376,36,o),
(351,26,c),
(359,0,l),
(582,0,l),
(588,22,l),
(563,35,o),
(535,47,o),
(509,56,c),
(418,697,l),
(403,706,l),
(395,706,o),
(361,700,o),
(339,691,c),
(3,57,l),
(-22,46,o),
(-56,31,o),
(-70,22,c),
(-64,0,l,{
name = hr00;
})
);
},
{
closed = 1;
nodes = (
(400,273,l),
(174,273,l),
(352,617,l)
);
}
);
width = 618;
}
);
unicode = 65;
},
{
glyphname = AE;
layers = (
{
layerId = master01;
shapes = (
{
closed = 1;
nodes = (
(314,662,o),
(348,648,o),
(377,639,c),
(10,59,l),
(-16,49,o),
(-55,31,o),
(-70,22,c),
(-64,0,l),
(129,0,l),
(137,26,l),
(68,53,l),
(221,296,l),
(451,302,l),
(405,57,l),
(375,48,o),
(347,37,o),
(320,26,c),
(328,0,l),
(433,8,l),
(544,8,o),
(706,0,o),
(758,-4,c,{
name = hr01;
}),
(773,14,o),
(783,34,o),
(789,55,c),
(783,72,l),
(734,61,o),
(607,56,o),
(473,55,c),
(527,304,l),
(759,310,l),
(768,353,l),
(537,353,l),
(585,649,l),
(683,643,o),
(792,643,o),
(838,643,c),
(852,659,o),
(863,677,o),
(869,696,c),
(863,713,l),
(815,702,o),
(573,696,o),
(413,696,c),
(292,700,l),
(286,678,l)
);
},
{
closed = 1;
nodes = (
(461,353,l),
(257,353,l),
(444,649,l),
(517,649,l)
);
}
);
width = 862;
}
);
unicode = 198;
},
{
glyphname = B;
layers = (
{
layerId = master01;
shapes = (
{
closed = 1;
nodes = (
(151,664,o),
(181,650,o),
(209,642,c),
(98,57,l),
(68,48,o),
(40,37,o),
(13,26,c),
(21,0,l),
(126,8,l,{
name = hr01;
}),
(323,0,o),
(326,0,o),
(330,0,cs,{
name = hr02;
}),
(461,0,o),
(567,106,o),
(567,225,cs),
(567,291,o),
(528,352,o),
(441,374,c),
(517,411,o),
(577,474,o),
(577,544,cs),
(577,631,o),
(523,698,o),
(425,698,c),
(252,696,l),
(131,700,l),
(125,678,l)
);
},
{
closed = 1;
nodes = (
(285,44,o),
(226,48,o),
(166,58,c),
(230,350,l),
(278,646,l),
(403,656,l),
(469,656,o),
(497,601,o),
(497,538,cs),
(497,480,o),
(460,399,o),
(362,399,cs),
(329,399,o),
(312,403,o),
(281,407,c),
(269,366,l),
(290,359,o),
(340,345,o),
(352,345,c),
(361,346,o),
(370,348,o),
(379,351,c),
(453,340,o),
(486,284,o),
(486,223,cs),
(486,139,o),
(424,44,o),
(313,44,cs,{
name = hr03;
})
);
}
);
width = 613;
}
);
unicode = 66;
},
{
glyphname = C;
layers = (
{
layerId = master01;
shapes = (
{
closed = 1;
nodes = (
(443,58,o),
(375,41,o),
(321,41,cs),
(207,41,o),
(130,112,o),
(130,258,cs),
(130,494,o),
(229,646,o),
(413,646,cs),
(468,646,o),
(516,634,o),
(571,623,c),
(597,673,l),
(564,682,o),
(477,712,o),
(439,712,c),
(225,676,o),
(50,537,o),
(50,254,cs),
(50,76,o),
(152,-12,o),
(302,-12,cs),
(368,-12,o),
(436,5,o),
(506,46,c),
(485,82,l,{
name = hr00;
})
);
}
);
width = 561;
}
);
unicode = 67;
},
{
glyphname = D;
layers = (
{
layerId = master01;
shapes = (
{
closed = 1;
nodes = (
(151,664,o),
(181,650,o),
(209,642,c),
(98,57,l),
(68,48,o),
(40,37,o),
(13,26,c),
(21,0,l),
(123,8,l),
(299,-6,l),
(561,7,o),
(702,220,o),
(702,459,cs),
(702,628,o),
(597,712,o),
(454,712,c),
(257,696,l),
(131,700,l),
(125,678,l,{
name = hr00;
})
);
},
{
closed = 1;
nodes = (
(266,41,o),
(214,49,o),
(167,60,c),
(230,350,l),
(276,639,l),
(339,654,o),
(396,658,o),
(437,658,cs),
(547,658,o),
(622,589,o),
(622,449,cs),
(622,267,o),
(510,41,o),
(317,41,cs)
);
}
);
width = 717;
}
);
unicode = 68;
},
{
glyphname = E;
layers = (
{
layerId = master01;
shapes = (
{
closed = 1;
nodes = (
(151,664,o),
(181,650,o),
(209,642,c),
(98,57,l),
(68,48,o),
(40,37,o),
(13,26,c),
(21,0,l),
(126,8,l),
(242,8,o),
(412,0,o),
(466,-4,c),
(481,14,o),
(491,34,o),
(497,55,c),
(491,72,l),
(440,61,o),
(306,56,o),
(166,55,c),
(225,326,l),
(473,339,l),
(482,382,l),
(235,382,l),
(278,646,l),
(382,640,o),
(497,640,o),
(546,640,c),
(560,657,o),
(571,676,o),
(577,696,c),
(571,713,l),
(521,702,o),
(388,697,o),
(252,696,c),
(131,700,l),
(125,678,l,{
name = hr00;
})
);
}
);
width = 570;
}
);
unicode = 69;
},
{
glyphname = F;
layers = (
{
layerId = master01;
shapes = (
{
closed = 1;
nodes = (
(382,640,o),
(497,640,o),
(546,640,c),
(560,657,o),
(571,676,o),
(577,696,c),
(571,713,l),
(521,702,o),
(385,696,o),
(252,696,c),
(131,700,l),
(125,678,l),
(151,664,o),
(181,650,o),
(209,642,c),
(98,57,l),
(68,48,o),
(40,37,o),
(13,26,c),
(21,0,l),
(274,0,l),
(280,22,l),
(245,37,o),
(203,51,o),
(167,60,c),
(221,310,l),
(459,323,l),
(468,366,l),
(232,366,l),
(278,646,l,{
name = hr00;
})
);
}
);
width = 550;
}
);
unicode = 70;
},
{
glyphname = G;
layers = (
{
layerId = master01;
shapes = (
{
closed = 1;
nodes = (
(498,646,o),
(546,634,o),
(601,623,c),
(627,673,l),
(594,682,o),
(507,712,o),
(469,712,c),
(240,676,o),
(50,552,o),
(50,254,cs),
(50,76,o),
(152,-12,o),
(302,-12,cs),
(379,-12,o),
(455,6,o),
(538,47,c),
(535,86,l),
(588,360,l),
(363,360,l),
(355,317,l),
(505,306,l),
(476,72,l),
(436,54,o),
(374,41,o),
(321,41,cs),
(207,41,o),
(130,112,o),
(130,258,cs),
(130,494,o),
(240,646,o),
(443,646,cs,{
name = hr00;
})
);
}
);
width = 627;
}
);
unicode = 71;
},
{
glyphname = H;
layers = (
{
layerId = master01;
shapes = (
{
closed = 1;
nodes = (
(151,664,o),
(181,650,o),
(209,642,c),
(98,57,l),
(68,48,o),
(40,37,o),
(13,26,c),
(21,0,l),
(244,0,l),
(250,22,l),
(224,36,o),
(194,49,o),
(166,58,c),
(224,322,l),
(561,338,l),
(515,57,l),
(486,47,o),
(457,37,o),
(431,26,c),
(439,0,l),
(662,0,l),
(668,22,l),
(642,36,o),
(611,49,o),
(584,58,c),
(695,643,l),
(725,652,o),
(753,663,o),
(780,674,c),
(772,700,l),
(549,700,l),
(543,678,l),
(569,664,o),
(599,650,o),
(627,642,c),
(570,384,l),
(235,384,l),
(277,643,l),
(307,652,o),
(335,663,o),
(362,674,c),
(354,700,l),
(131,700,l),
(125,678,l,{
name = hr00;
})
);
}
);
width = 763;
}
);
unicode = 72;
},
{
glyphname = I;
layers = (
{
layerId = master01;
shapes = (
{
closed = 1;
nodes = (
(225,36,o),
(195,49,o),
(167,58,c),
(228,350,l),
(278,643,l),
(308,652,o),
(336,663,o),
(363,674,c),
(355,700,l),
(132,700,l),
(126,678,l),
(152,664,o),
(182,650,o),
(210,642,c),
(149,350,l),
(98,57,l),
(69,47,o),
(40,37,o),
(14,26,c),
(22,0,l),
(245,0,l),
(251,22,l,{
name = hr00;
})
);
}
);
width = 355;
}
);
unicode = 73;
},
{
glyphname = J;
layers = (
{
layerId = master01;
shapes = (
{
closed = 1;
nodes = (
(135,663,o),
(172,650,o),
(204,641,c),
(111,159,ls),
(88,39,o),
(14,-75,o),
(-84,-183,c),
(-59,-204,l),
(70,-80,o),
(165,48,o),
(192,186,cs),
(280,644,l),
(308,653,o),
(335,663,o),
(361,674,c),
(353,700,l),
(110,700,l),
(104,678,l,{
name = hr00;
})
);
}
);
width = 324;
}
);
unicode = 74;
},
{
glyphname = K;
layers = (
{
layerId = master01;
shapes = (
{
closed = 1;
nodes = (
(151,664,o),
(181,650,o),
(209,642,c),
(98,57,l),
(68,48,o),
(40,37,o),
(13,26,c),
(21,0,l),
(244,0,l),
(250,22,l),
(224,36,o),
(194,49,o),
(166,58,c),
(226,334,l),
(256,326,o),
(309,315,o),
(322,315,c),
(344,172,o),
(406,-12,o),
(440,-12,c,{
name = hr01;
}),
(571,8,l),
(577,28,l),
(562,40,o),
(513,54,o),
(482,57,c),
(451,108,o),
(400,217,o),
(379,343,c),
(491,486,o),
(583,605,o),
(624,694,c),
(603,707,l),
(594,707,o),
(560,700,o),
(512,655,c),
(470,534,l),
(419,460,o),
(401,434,o),
(343,369,c),
(335,368,o),
(327,368,o),
(319,368,cs),
(289,368,o),
(258,371,o),
(234,376,c),
(277,643,l),
(307,652,o),
(335,663,o),
(362,674,c),
(354,700,l),
(131,700,l),
(125,678,l)
);
}
);
width = 594;
}
);
unicode = 75;
},
{
glyphname = L;
layers = (
{
layerId = master01;
shapes = (
{
closed = 1;
nodes = (
(233,5,o),
(374,0,o),
(422,-4,c),
(437,14,o),
(447,34,o),
(453,55,c),
(447,72,l),
(402,62,o),
(288,56,o),
(166,55,c),
(227,350,l),
(277,643,l),
(307,652,o),
(335,663,o),
(362,674,c),
(354,700,l),
(131,700,l),
(125,678,l),
(151,664,o),
(181,650,o),
(209,642,c),
(148,350,l),
(97,57,l),
(68,47,o),
(39,37,o),
(13,26,c),
(21,0,l),
(130,5,l,{
name = hr00;
})
);
}
);
width = 499;
}
);
unicode = 76;
},
{
glyphname = Lslash;
layers = (
{
layerId = master01;
shapes = (
{
closed = 1;
nodes = (
(237,420,o),
(123,365,o),
(57,343,c),
(59,330,l),
(62,326,o),
(73,316,o),
(97,302,c),
(206,357,o),
(281,398,o),
(328,426,c),
(326,438,l),
(324,440,o),
(317,446,o),
(303,456,c,{
name = hr00;
})
);
},
{
ref = L;
}
);
width = 499;
}
);
unicode = 321;
},
{
glyphname = M;
layers = (
{
layerId = master01;
shapes = (
{
closed = 1;
nodes = (
(158,665,o),
(183,653,o),
(206,644,c),
(64,58,l),
(38,50,o),
(9,36,o),
(-15,22,c),
(-9,0,l),
(194,0,l),
(202,26,l),
(175,37,o),
(148,48,o),
(120,58,c),
(246,598,l),
(379,50,l),
(397,50,l),
(727,601,l),
(658,58,l),
(623,49,o),
(585,36,o),
(553,22,c),
(559,0,l),
(812,0,l),
(820,26,l),
(794,37,o),
(766,47,o),
(737,56,c),
(806,642,l),
(836,652,o),
(863,662,o),
(891,674,c),
(883,700,l),
(730,696,l),
(425,185,l),
(307,696,l),
(142,700,l),
(136,678,l,{
name = hr00;
})
);
}
);
width = 883;
}
);
unicode = 77;
},
{
glyphname = N;
layers = (
{
layerId = master01;
shapes = (
{
closed = 1;
nodes = (
(144,664,o),
(170,652,o),
(194,643,c),
(84,58,l),
(59,49,o),
(30,36,o),
(6,22,c),
(12,0,l),
(215,0,l),
(223,26,l),
(196,37,o),
(169,48,o),
(141,58,c),
(235,583,l),
(533,0,l),
(588,0,l),
(709,641,l),
(735,649,o),
(765,663,o),
(790,678,c),
(784,700,l),
(581,700,l),
(573,674,l),
(599,663,o),
(626,652,o),
(654,642,c),
(559,126,l),
(264,700,l),
(127,700,l),
(121,678,l,{
name = hr00;
})
);
}
);
width = 760;
}
);
unicode = 78;
},
{
glyphname = Eng;
layers = (
{
layerId = master01;
shapes = (
{
closed = 1;
nodes = (
(367,-189,o),
(334,-184,o),
(295,-174,c),
(278,-226,l),
(298,-234,o),
(347,-252,o),
(371,-252,c),
(476,-226,o),
(560,-150,o),
(599,58,cs),
(709,641,l),
(735,649,o),
(765,663,o),
(790,678,c),
(784,700,l),
(581,700,l),
(573,674,l),
(599,663,o),
(626,652,o),
(654,642,c),
(559,126,l),
(264,700,l),
(127,700,l),
(121,678,l),
(144,664,o),
(170,652,o),
(194,643,c),
(84,58,l),
(59,49,o),
(30,36,o),
(6,22,c),
(12,0,l),
(215,0,l),
(223,26,l),
(196,37,o),
(169,48,o),
(141,58,c),
(235,583,l),
(525,15,l),
(503,-92,o),
(473,-189,o),
(405,-189,c,{
name = hr00;
})
);
}
);
width = 760;
}
);
unicode = 330;
},
{
glyphname = O;
layers = (
{
layerId = master01;
shapes = (
{
closed = 1;
nodes = (
(200,712,o),
(50,457,o),
(50,242,cs),
(50,101,o),
(128,-12,o),
(266,-12,cs),
(518,-12,o),
(679,233,o),
(679,454,cs),
(679,595,o),
(599,712,o),
(451,712,cs,{
name = hr00;
})
);
},
{
closed = 1;
nodes = (
(521,659,o),
(599,569,o),
(599,451,cs),
(599,268,o),
(494,41,o),
(285,41,cs),
(195,41,o),
(130,123,o),
(130,241,cs),
(130,436,o),
(220,659,o),
(427,659,cs)
);
}
);
width = 694;
}
);
unicode = 79;
},
{
glyphname = OE;
layers = (
{
layerId = master01;
shapes = (
{
closed = 1;
nodes = (
(510,702,o),
(482,706,o),
(451,706,cs),
(200,706,o),
(50,457,o),
(50,242,cs),
(50,101,o),
(128,-12,o),
(266,-12,cs),
(325,-12,o),
(381,-1,o),
(420,11,c),
(408,70,l),
(372,51,o),
(331,39,o),
(285,39,cs),
(195,39,o),
(130,123,o),
(130,241,cs),
(130,436,o),
(220,653,o),
(427,653,cs),
(463,653,o),
(510,640,o),
(538,620,c),
(535,696,l,{
name = hr00;
})
);
},
{
pos = (283,0);
ref = E;
}
);
width = 853;
}
);
unicode = 338;
},
{
glyphname = P;
layers = (
{
layerId = master01;
shapes = (
{
closed = 1;
nodes = (
(245,37,o),
(203,51,o),
(167,60,c),
(230,350,l),
(278,646,l),
(405,656,l),
(474,656,o),
(504,591,o),
(504,518,cs),
(504,432,o),
(463,309,o),
(354,309,cs),
(313,309,o),
(292,315,o),
(253,327,c),
(241,286,l),
(262,279,o),
(319,255,o),
(344,255,c),
(465,283,o),
(584,397,o),
(584,524,cs),
(584,625,o),
(526,698,o),
(423,698,c),
(252,696,l),
(131,700,l),
(125,678,l),
(151,664,o),
(181,650,o),
(209,642,c),
(98,57,l),
(68,48,o),
(40,37,o),
(13,26,c),
(21,0,l),
(274,0,l),
(280,22,l,{
name = hr00;
})
);
}
);
width = 563;
}
);
unicode = 80;
},
{
glyphname = Thorn;
layers = (
{
layerId = master01;
shapes = (
{
closed = 1;
nodes = (
(290,174,o),
(269,180,o),
(230,192,c),
(218,151,l),
(239,144,o),
(296,120,o),
(321,120,c),
(442,148,o),
(561,262,o),
(561,389,cs),
(561,490,o),
(503,563,o),
(400,563,c),
(229,561,l),
(255,511,l),
(382,521,l),
(451,521,o),
(481,456,o),
(481,383,cs),
(481,297,o),
(440,174,o),
(331,174,cs,{
name = hr00;
})
);
},
{
ref = I;
}
);
width = 541;
}
);
unicode = 222;
},
{
glyphname = Q;
layers = (
{
layerId = master01;
shapes = (
{
closed = 1;
nodes = (
(333,-98,o),
(399,-159,o),
(498,-179,c),
(536,-179,o),
(620,-152,o),
(656,-140,c),
(643,-91,l),
(587,-102,o),
(528,-113,o),
(472,-113,cs),
(429,-113,o),
(391,-86,o),
(342,0,c),
(269,0,l,{
name = hr00;
})
);
},
{
ref = O;
}
);
width = 694;
}
);
unicode = 81;
},
{
glyphname = R;
layers = (
{
layerId = master01;
shapes = (
{
closed = 1;
nodes = (
(231,36,o),
(197,50,o),
(166,58,c),
(230,350,l),
(278,646,l),
(403,656,l),
(472,656,o),
(502,591,o),
(502,518,cs),
(502,442,o),
(464,334,o),
(362,334,cs),
(321,334,o),
(300,340,o),
(261,352,c),
(249,311,l),
(275,300,o),
(337,280,o),
(352,280,c),
(368,151,o),
(415,-12,o),
(440,-12,c),
(571,8,l),
(577,28,l),
(562,40,o),
(513,54,o),
(482,57,c),
(460,100,o),
(425,191,o),
(410,299,c),
(503,340,o),
(582,428,o),
(582,524,cs),
(582,625,o),
(524,698,o),
(421,698,c),
(252,696,l),
(131,700,l),
(125,678,l),
(151,664,o),
(181,650,o),
(209,642,c),
(98,57,l),
(68,48,o),
(40,37,o),
(13,26,c),
(21,0,l,{
name = hr01;
}),
(254,0,l),
(260,22,l)
);
}
);
width = 602;
}
);
unicode = 82;
},
{
glyphname = S;
layers = (
{
layerId = master01;
shapes = (
{
closed = 1;
nodes = (
(67,3,o),
(130,-12,o),
(203,-12,cs),
(320,-12,o),
(456,66,o),
(456,196,cs),
(456,242,o),
(427,291,o),
(372,329,cs),
(227,427,ls),
(200,445,o),
(177,476,o),
(177,523,cs),
(177,626,o),
(264,646,o),
(316,646,cs),
(371,646,o),
(419,634,o),
(474,623,c),
(500,673,l),
(467,682,o),
(380,712,o),
(342,712,c),
(195,690,o),
(107,599,o),
(107,495,cs),
(107,446,o),
(128,400,o),
(175,368,cs),
(324,267,ls),
(361,242,o),
(372,208,o),
(372,179,cs),
(372,105,o),
(313,36,o),
(210,36,cs),
(162,36,o),
(107,50,o),
(73,77,c),
(69,119,o),
(63,159,o),
(59,181,c),
(36,186,l),
(0,36,l,{
name = hr00;
})
);
}
);
width = 490;
}
);
unicode = 83;
},
{
glyphname = T;
layers = (
{
layerId = master01;
shapes = (
{
closed = 1;
nodes = (
(339,37,o),
(300,51,o),
(267,59,c),
(328,350,l),
(381,657,l),
(583,638,l),
(597,658,o),
(609,675,o),
(616,696,c),
(610,713,l),
(575,704,o),
(545,700,o),
(501,700,cs,{
name = hr01;
}),
(75,700,l),
(70,684,l),
(78,660,o),
(91,642,o),
(108,623,c),
(142,637,o),
(200,660,o),
(236,660,cs),
(314,660,l),
(249,350,l),
(199,59,l),
(162,49,o),
(127,37,o),
(94,26,c),
(102,0,l),
(365,0,l),
(371,22,l)
);
}
);
width = 541;
}
);
unicode = 84;
},
{
glyphname = U;
layers = (
{
layerId = master01;
shapes = (
{
closed = 1;
nodes = (
(127,664,o),
(157,651,o),
(184,643,c),
(102,218,ls),
(97,195,o),
(95,174,o),
(95,155,cs),
(95,37,o),
(177,-12,o),
(310,-12,cs),
(460,-12,o),
(569,82,o),
(595,218,cs),
(677,641,l),
(703,649,o),
(732,663,o),
(758,678,c),
(752,700,l),
(549,700,l),
(541,674,l),
(567,663,o),
(594,652,o),
(622,642,c),
(539,216,ls),
(522,127,o),
(449,43,o),
(323,43,cs),
(215,43,o),
(170,94,o),
(170,170,cs),
(170,184,o),
(172,199,o),
(175,215,cs),
(258,644,l),
(286,653,o),
(313,663,o),
(339,674,c),
(331,700,l),
(108,700,l),
(102,678,l,{
name = hr00;
})
);
}
);
width = 703;
}
);
unicode = 85;
},
{
glyphname = V;
layers = (
{
layerId = master01;
shapes = (
{
closed = 1;
nodes = (
(66,700,l),
(60,678,l),
(78,666,o),
(97,656,o),
(124,646,c),
(226,-8,l),
(283,0,l),
(437,234,o),
(565,534,o),
(617,694,c),
(596,707,l),
(587,707,o),
(553,700,o),
(505,655,c),
(495,531,l),
(448,382,o),
(345,178,o),
(284,89,c),
(196,700,l,{
name = hr00;
})
);
}
);
width = 582;
}
);
unicode = 86;
},
{
glyphname = W;
layers = (
{
layerId = master01;
shapes = (
{
closed = 1;
nodes = (
(71,700,l),
(65,678,l),
(83,666,o),
(102,656,o),
(129,646,c),
(182,-8,l),
(240,0,l),
(326,144,o),
(404,310,o),
(463,454,c),
(505,-8,l),
(559,0,l),
(713,234,o),
(841,534,o),
(893,694,c),
(872,707,l),
(863,707,o),
(829,700,o),
(781,655,c),
(771,531,l),
(724,382,o),
(627,191,o),
(566,102,c),
(541,363,o),
(530,516,o),
(521,602,c),
(534,636,o),
(545,667,o),
(554,694,c),
(533,707,l),
(524,707,o),
(492,700,o),
(444,655,c),
(455,550,l),
(401,403,o),
(310,216,o),
(246,102,c),
(203,700,l,{
name = hr00;
})
);
}
);
width = 858;
}
);
unicode = 87;
},
{
glyphname = X;
layers = (
{
layerId = master01;
shapes = (
{
closed = 1;
nodes = (
(131,665,o),
(158,653,o),
(183,645,c),
(315,343,l),
(83,61,l),
(54,50,o),
(26,38,o),
(0,26,c),
(8,0,l),
(152,0,l),
(156,51,l),
(164,72,o),
(181,96,o),
(188,105,cs),
(337,293,l),
(441,54,l),
(414,45,o),
(389,36,o),
(365,26,c),
(373,0,l),
(596,0,l),
(602,22,l),
(577,35,o),
(549,47,o),
(523,56,c),
(394,352,l),
(674,692,l),
(662,704,l),
(655,705,o),
(648,705,o),
(641,705,cs),
(633,705,o),
(590,705,o),
(553,693,c),
(543,634,o),
(533,600,o),
(522,587,cs),
(373,399,l),
(266,645,l),
(294,654,o),
(320,663,o),
(345,674,c),
(337,700,l),
(114,700,l),
(108,678,l,{
name = hr00;
})
);
}
);
width = 635;
}
);
unicode = 88;
},
{
glyphname = Y;
layers = (
{
layerId = master01;
shapes = (
{
closed = 1;
nodes = (
(337,37,o),
(299,51,o),
(266,59,c),
(305,264,l),
(413,409,o),
(513,593,o),
(552,694,c),
(531,707,l),
(522,707,o),
(488,700,o),
(440,655,c),
(426,534,l),
(378,447,o),
(342,389,o),
(289,309,c),
(172,700,l),
(52,700,l),
(46,678,l),
(64,666,o),
(83,656,o),
(110,646,c),
(233,271,l),
(196,58,l),
(159,48,o),
(124,37,o),
(92,26,c),
(100,0,l),
(363,0,l),
(369,22,l,{
name = hr00;
})
);
}
);
width = 511;
}
);
unicode = 89;
},
{
glyphname = Z;
layers = (
{
layerId = master01;
shapes = (
{
closed = 1;
nodes = (
(-1,-12,l),
(41,8,l),
(202,7,o),
(418,0,o),
(491,-4,c),
(505,14,o),
(516,34,o),
(522,55,c),
(516,72,l),
(452,62,o),
(292,57,o),
(116,55,c),
(622,695,l),
(604,712,l),
(578,696,l),
(390,697,o),
(207,702,o),
(139,713,c),
(133,696,l),
(139,676,o),
(150,657,o),
(164,640,c),
(224,640,o),
(354,640,o),
(483,643,c),
(-13,8,l,{
name = hr00;
})
);
}
);
width = 605;
}
);
unicode = 90;
},
{
glyphname = a;
layers = (
{
layerId = master01;
shapes = (
{
closed = 1;
nodes = (
(194,439,o),
(35,341,o),
(35,82,cs),
(35,28,o),
(57,-12,o),
(97,-12,cs),
(150,-12,o),
(213,31,o),
(324,213,c),
(310,132,o),
(301,63,o),
(301,23,cs),
(301,-7,o),
(314,-12,o),
(318,-12,c),
(442,7,l),
(448,26,l),
(434,37,o),
(387,50,o),
(358,53,c),
(358,132,o),
(408,348,o),
(458,457,c),
(444,460,o),
(430,461,o),
(417,461,c),
(407,437,l),
(383,445,o),
(331,467,o),
(308,467,c,{
name = hr00;
})
);
},
{
closed = 1;
nodes = (
(102,225,o),
(158,410,o),
(276,410,cs),
(304,410,o),
(331,406,o),
(359,401,c),
(341,308,l),
(224,112,o),
(158,44,o),
(127,44,cs),
(112,44,o),
(102,58,o),
(102,80,cs)
);
}
);
width = 498;
}
);
unicode = 97;
},
{
glyphname = ae;
layers = (
{
layerId = master01;
shapes = (
{
closed = 1;
nodes = (
(216,98,o),
(160,44,o),
(132,44,cs),
(117,44,o),
(107,58,o),
(107,80,cs),
(107,225,o),
(163,410,o),
(281,410,cs),
(322,410,o),
(359,402,o),
(401,395,c),
(416,436,l),
(395,443,o),
(338,467,o),
(313,467,c),
(199,439,o),
(40,341,o),
(40,82,cs),
(40,28,o),
(62,-12,o),
(102,-12,cs),
(152,-12,o),
(211,26,o),
(309,180,c),
(311,249,l)
);
},
{
closed = 1;
nodes = (
(531,232,o),
(599,315,o),
(599,407,cs),
(599,440,o),
(550,468,o),
(514,468,cs,{
name = hr01;
}),
(452,468,o),
(256,392,o),
(256,122,cs),
(256,44,o),
(290,-12,o),
(355,-12,cs),
(448,-12,o),
(519,80,o),
(550,127,c),
(528,149,l),
(489,92,o),
(427,44,o),
(379,44,cs),
(338,44,o),
(323,74,o),
(323,120,cs),
(323,150,o),
(325,182,o),
(330,212,c),
(441,223,ls)
);
},
{
closed = 1;
nodes = (
(533,325,o),
(483,256,o),
(407,256,cs),
(339,256,l),
(362,345,o),
(408,416,o),
(479,416,cs),
(522,416,o),
(533,412,o),
(533,400,cs)
);
}
);
width = 614;
}
);
unicode = 230;
},
{
glyphname = b;
layers = (
{
layerId = master01;
shapes = (
{
closed = 1;
nodes = (
(238,757,o),
(233,762,o),
(229,762,cs),
(89,743,l),
(83,724,l),
(100,711,o),
(132,697,o),
(163,694,c),
(163,585,o),
(87,177,o),
(22,27,c),
(83,8,o),
(151,-12,o),
(172,-12,c),
(286,16,o),
(445,114,o),
(445,373,cs),
(445,427,o),
(423,467,o),
(383,467,cs),
(329,467,o),
(265,427,o),
(147,255,c),
(188,434,o),
(238,654,o),
(238,727,cs,{
name = hr00;
})
);
},
{
closed = 1;
nodes = (
(378,230,o),
(322,45,o),
(204,45,cs),
(171,45,o),
(141,50,o),
(110,55,c),
(140,191,l),
(258,355,o),
(322,411,o),
(353,411,cs),
(368,411,o),
(378,397,o),
(378,375,cs)
);
}
);
width = 485;
}
);
unicode = 98;
},
{
glyphname = c;
layers = (
{
layerId = master01;
shapes = (
{
closed = 1;
nodes = (
(224,-12,o),
(291,80,o),
(319,127,c),
(297,149,l),
(263,92,o),
(207,44,o),
(163,44,cs),
(122,44,o),
(107,74,o),
(107,120,cs),
(107,249,o),
(154,411,o),
(251,411,cs),
(289,411,o),
(322,403,o),
(361,396,c),
(376,442,l),
(357,448,o),
(306,468,o),
(283,468,c),
(181,444,o),
(40,353,o),
(40,122,cs),
(40,44,o),
(74,-12,o),
(139,-12,c,{
name = hr00;
})
);
}
);
width = 366;
}
);
unicode = 99;
},
{
glyphname = d;
layers = (
{
layerId = master01;
shapes = (
{
closed = 1;
nodes = (
(419,688,o),
(395,574,o),
(370,451,c),
(347,459,o),
(322,467,o),
(308,467,c),
(194,439,o),
(35,341,o),
(35,82,cs),
(35,28,o),
(57,-12,o),
(97,-12,cs),
(150,-12,o),
(213,31,o),
(324,213,c),
(310,133,o),
(301,63,o),
(301,23,cs),
(301,-7,o),
(314,-12,o),
(318,-12,c),
(442,7,l),
(448,26,l),
(434,37,o),
(387,50,o),
(358,53,c),
(358,132,o),
(466,644,o),
(516,753,c),
(501,762,l),
(493,762,o),
(462,760,o),
(428,747,c,{
name = hr00;
})
);
},
{
closed = 1;
nodes = (
(102,225,o),
(158,410,o),
(276,410,cs),
(305,410,o),
(332,406,o),
(360,401,c),
(342,308,l),
(224,112,o),
(158,44,o),
(127,44,cs),
(112,44,o),
(102,58,o),
(102,80,cs)
);
}
);
width = 485;
}
);
unicode = 100;
},
{
glyphname = eth;
layers = (
{
layerId = master01;
shapes = (
{
closed = 1;
nodes = (
(268,576,l),
(322,509,o),
(360,427,o),
(360,330,cs),
(360,306,o),
(358,281,o),
(353,255,c),
(411,236,l),
(416,265,o),
(419,292,o),
(419,319,cs),
(419,435,o),
(374,529,o),
(315,601,c),
(421,659,l),
(408,695,l),
(285,635,l),
(247,675,o),
(206,706,o),
(168,731,c),
(142,693,l),
(175,669,o),
(208,642,o),
(238,612,c),
(144,566,l),
(160,518,l,{
name = hr00;
})
);
},
{
ref = o;
}
);
width = 449;
}
);
unicode = 240;
},
{
glyphname = e;
layers = (
{
layerId = master01;
shapes = (
{
closed = 1;
nodes = (
(315,232,o),
(383,315,o),
(383,407,cs),
(383,440,o),
(334,468,o),
(298,468,cs),
(236,468,o),
(40,392,o),
(40,122,cs),
(40,44,o),
(74,-12,o),
(139,-12,cs),
(232,-12,o),
(303,80,o),
(334,127,c),
(312,149,l),
(273,92,o),
(211,44,o),
(163,44,cs),
(122,44,o),
(107,74,o),
(107,120,cs),
(107,150,o),
(109,182,o),
(114,212,c),
(225,223,ls,{
name = hr00;
})
);
},
{
closed = 1;
nodes = (
(317,325,o),
(267,256,o),
(191,256,cs),
(123,256,l),
(146,345,o),
(192,416,o),
(263,416,cs),
(306,416,o),
(317,412,o),
(317,400,cs)
);
}
);
width = 398;
}
);
unicode = 101;
},
{
glyphname = f;
layers = (
{
layerId = master01;
shapes = (
{
closed = 1;
nodes = (
(359,699,o),
(392,691,o),
(431,684,c),
(448,736,l),
(429,742,o),
(379,762,o),
(355,762,c),
(250,736,o),
(165,663,o),
(127,455,c),
(51,442,l),
(50,437,o),
(49,430,o),
(49,424,cs),
(49,415,o),
(51,408,o),
(60,408,cs),
(119,408,l),
(15,-194,l),
(52,-189,l),
(119,52,l),
(185,408,l),
(295,408,ls),
(308,408,o),
(314,445,o),
(314,451,c),
(193,451,l),
(215,574,o),
(244,699,o),
(321,699,cs,{
name = hr00;
})
);
}
);
width = 268;
}
);
unicode = 102;
},
{
glyphname = g;
layers = (
{
layerId = master01;
shapes = (
{
closed = 1;
nodes = (
(187,468,o),
(40,412,o),
(40,233,cs),
(40,185,o),
(61,151,o),
(102,137,c),
(81,106,o),
(59,67,o),
(50,33,c),
(50,18,o),
(54,8,o),
(67,0,c),
(15,-31,o),
(-26,-60,o),
(-56,-106,c),
(-56,-197,o),
(-9,-252,o),
(93,-252,cs),
(246,-252,o),
(366,-142,o),
(366,-46,cs),
(366,-8,o),
(341,2,o),
(276,14,cs),
(131,42,ls),
(115,45,o),
(108,50,o),
(108,67,c),
(114,83,o),
(130,111,o),
(143,131,c),
(149,131,ls),
(225,131,o),
(379,187,o),
(379,367,cs,{
name = hr01;
}),
(379,400,o),
(368,427,o),
(345,444,c),
(361,452,o),
(382,454,o),
(420,454,c),
(429,469,l),
(429,474,o),
(427,497,o),
(414,522,c),
(383,521,o),
(351,509,o),
(315,460,c),
(300,465,o),
(282,468,o),
(262,468,cs)
);
},
{
closed = 1;
nodes = (
(287,433,o),
(312,407,o),
(312,362,cs),
(312,243,o),
(242,171,o),
(167,171,cs),
(128,171,o),
(107,197,o),
(107,241,cs),
(107,360,o),
(169,433,o),
(250,433,cs)
);
},
{
closed = 1;
nodes = (
(289,-48,o),
(294,-57,o),
(294,-69,cs,{
name = hr02;
}),
(294,-138,o),
(198,-204,o),
(105,-204,cs),
(33,-204,o),
(11,-160,o),
(11,-106,cs),
(11,-99,o),
(20,-77,o),
(100,-11,c),
(246,-40,ls)
);
}
);
width = 409;
}
);
unicode = 103;
},
{
glyphname = h;
layers = (
{
layerId = master01;
shapes = (
{
closed = 1;
nodes = (
(427,269,o),
(443,326,o),
(443,374,cs),
(443,428,o),
(421,468,o),
(381,468,cs),
(328,468,o),
(267,426,o),
(160,253,c),
(202,436,o),
(251,655,o),
(251,727,cs),
(251,757,o),
(246,762,o),
(242,762,cs),
(102,743,l),
(96,724,l),
(113,711,o),
(145,697,o),
(176,694,c),
(176,579,o),
(90,130,o),
(22,-3,c),
(37,-12,l),
(45,-12,o),
(77,-10,o),
(112,3,c),
(149,169,l),
(258,349,o),
(320,412,o),
(351,412,cs),
(366,412,o),
(376,406,o),
(376,378,cs),
(376,305,o),
(334,132,o),
(281,23,c),
(281,-7,o),
(294,-12,o),
(298,-12,c),
(432,8,l),
(438,27,l),
(427,35,o),
(389,48,o),
(363,53,c,{
name = hr00;
})
);
}
);
width = 513;
}
);
unicode = 104;
},
{
glyphname = i;
layers = (
{
layerId = master01;
shapes = (
{
closed = 1;
nodes = (
(204,662,o),
(172,655,o),
(172,655,c),
(172,655,o),
(153,611,o),
(153,579,cs),
(153,561,o),
(159,547,o),
(179,547,cs),
(198,547,o),
(228,556,o),
(228,556,c),
(229,556,o),
(247,599,o),
(247,628,cs),
(247,647,o),
(240,662,o),
(222,662,cs,{
name = hr00;
})
);
},
{
closed = 1;
nodes = (
(70,198,o),
(50,71,o),
(50,23,cs),
(50,-7,o),
(63,-12,o),
(67,-12,c),
(191,7,l),
(197,26,l),
(183,37,o),
(136,50,o),
(107,53,c),
(107,117,o),
(161,348,o),
(204,457,c),
(189,466,l),
(181,466,o),
(159,464,o),
(125,451,c)
);
}
);
width = 244;
}
);
unicode = 105;
},
{
glyphname = dotlessi;
layers = (
{
layerId = master01;
shapes = (
{
closed = 1;
nodes = (
(70,198,o),
(50,71,o),
(50,23,cs),
(50,-7,o),
(63,-12,o),
(67,-12,c),
(191,7,l),
(197,26,l),
(183,37,o),
(136,50,o),
(107,53,c),
(107,117,o),
(161,348,o),
(204,457,c),
(189,466,l),
(181,466,o),
(159,464,o),
(125,451,c,{
name = hr00;
})
);
}
);
width = 244;
}
);
unicode = 305;
},
{
glyphname = j;
layers = (
{
layerId = master01;
shapes = (
{
closed = 1;
nodes = (
(199,662,o),
(168,655,o),
(168,655,c),
(167,655,o),
(150,609,o),
(150,578,cs),
(150,561,o),
(157,547,o),
(176,547,cs),
(194,547,o),
(223,556,o),
(223,556,c),
(223,556,o),
(239,599,o),
(239,627,cs),
(239,646,o),
(233,662,o),
(216,662,cs,{
name = hr00;
})
);
},
{
closed = 1;
nodes = (
(207,457,o),
(202,462,o),
(198,462,cs),
(62,443,l),
(56,424,l),
(73,411,o),
(105,397,o),
(136,394,c),
(79,69,ls),
(60,-40,o),
(15,-138,o),
(-60,-241,c),
(-36,-262,l),
(70,-142,o),
(121,-14,o),
(138,72,cs),
(207,427,l)
);
}
);
width = 245;
}
);
unicode = 106;
},
{
glyphname = dotlessj;
layers = (
{
layerId = master01;
shapes = (
{
closed = 1;
nodes = (
(207,457,o),
(202,462,o),
(198,462,cs),
(62,443,l),
(56,424,l),
(73,411,o),
(105,397,o),
(136,394,c),
(79,69,ls),
(60,-40,o),
(15,-138,o),
(-60,-241,c),
(-36,-262,l),
(70,-142,o),
(121,-14,o),
(138,72,cs),
(207,427,l,{
name = hr00;
})
);
}
);
width = 245;
}
);
unicode = 567;
},
{
glyphname = k;
layers = (
{
layerId = master01;
shapes = (
{
closed = 1;
nodes = (
(402,252,o),
(443,336,o),
(443,384,cs),
(443,438,o),
(421,468,o),
(381,468,cs),
(328,468,o),
(267,426,o),
(160,253,c),
(202,436,o),
(251,655,o),
(251,727,cs),
(251,757,o),
(246,762,o),
(242,762,cs),
(102,743,l),
(96,724,l),
(113,711,o),
(145,697,o),
(176,694,c),
(176,579,o),
(90,130,o),
(22,-3,c),
(37,-12,l),
(45,-12,o),
(77,-10,o),
(112,3,c),
(149,169,l),
(258,349,o),
(321,412,o),
(354,412,cs),
(371,412,o),
(379,396,o),
(379,373,cs),
(379,327,o),
(336,252,o),
(223,219,c),
(223,157,o),
(280,-12,o),
(303,-12,c),
(427,7,l),
(433,26,l),
(419,37,o),
(372,50,o),
(343,53,c),
(320,94,o),
(290,144,o),
(275,195,c,{
name = hr00;
})
);
}
);
width = 463;
}
);
unicode = 107;
},
{
glyphname = kgreenlandic;
layers = (
{
layerId = master01;
shapes = (
{
closed = 1;
nodes = (
(190,343,o),
(195,398,o),
(195,427,cs),
(195,457,o),
(190,462,o),
(186,462,c),
(62,443,l),
(56,424,l),
(73,411,o),
(105,397,o),
(136,394,c),
(136,315,o),
(90,106,o),
(40,-3,c),
(55,-12,l),
(63,-12,o),
(95,-10,o),
(130,3,c),
(141,61,o),
(151,111,o),
(159,156,c),
(272,346,o),
(338,412,o),
(372,412,cs),
(389,412,o),
(397,396,o),
(397,373,cs),
(397,327,o),
(354,252,o),
(241,219,c),
(241,157,o),
(298,-12,o),
(321,-12,c),
(445,7,l),
(451,26,l),
(437,37,o),
(390,50,o),
(361,53,c),
(338,94,o),
(308,144,o),
(293,195,c),
(420,252,o),
(461,336,o),
(461,384,cs),
(461,438,o),
(439,468,o),
(399,468,cs),
(345,468,o),
(283,426,o),
(174,247,c,{
name = hr00;
})
);
}
);
width = 481;
}
);
unicode = 312;
},
{
glyphname = l;
layers = (
{
layerId = master01;
shapes = (
{
closed = 1;
nodes = (
(155,609,o),
(40,159,o),
(40,23,cs),
(40,-7,o),
(53,-12,o),
(57,-12,c),
(181,7,l),
(187,26,l),
(173,37,o),
(126,50,o),
(97,53,c),
(97,132,o),
(212,644,o),
(265,753,c),
(250,762,l),
(242,762,o),
(211,760,o),
(177,747,c,{
name = hr00;
})
);
}
);
width = 234;
}
);
unicode = 108;
},
{
glyphname = lslash;
layers = (
{
layerId = master01;
shapes = (
{
closed = 1;
nodes = (
(179,420,o),
(73,365,o),
(13,343,c),
(15,330,l),
(18,326,o),
(29,316,o),
(53,302,c),
(152,357,o),
(221,398,o),
(264,426,cs),
(262,438,l),
(260,440,o),
(253,446,o),
(239,456,c,{
name = hr00;
})
);
},
{
ref = l;
}
);
width = 234;
}
);
unicode = 322;
},
{
glyphname = m;
layers = (
{
layerId = master01;
shapes = (
{
closed = 1;
nodes = (
(142,63,o),
(151,114,o),
(159,160,c),
(267,347,o),
(329,412,o),
(359,412,cs),
(374,412,o),
(384,406,o),
(384,384,cs),
(384,305,o),
(336,106,o),
(286,-3,c),
(301,-12,l),
(307,-12,o),
(331,-10,o),
(360,3,c),
(386,77,o),
(405,138,o),
(418,189,c),
(516,354,o),
(572,412,o),
(601,412,cs),
(616,412,o),
(626,406,o),
(626,384,cs),
(626,305,o),
(583,132,o),
(531,23,c),
(531,-7,o),
(544,-12,o),
(548,-12,c),
(682,8,l),
(688,27,l),
(676,35,o),
(640,48,o),
(613,53,c),
(677,269,o),
(693,326,o),
(693,374,cs),
(693,428,o),
(672,468,o),
(631,468,cs),
(584,468,o),
(530,432,o),
(442,292,c),
(448,329,o),
(451,356,o),
(451,374,cs),
(451,428,o),
(430,468,o),
(389,468,cs),
(338,468,o),
(279,426,o),
(175,252,c),
(190,342,o),
(195,392,o),
(195,421,cs),
(195,451,o),
(190,456,o),
(186,456,c),
(62,437,l),
(56,418,l),
(73,405,o),
(105,391,o),
(136,388,c),
(136,309,o),
(90,106,o),
(40,-3,c),
(55,-12,l),
(62,-12,o),
(94,-10,o),
(130,3,c,{
name = hr00;
})
);
}
);
width = 763;
}
);
unicode = 109;
},
{
glyphname = n;
layers = (
{
layerId = master01;
shapes = (
{
closed = 1;
nodes = (
(141,61,o),
(151,111,o),
(159,156,c),
(273,346,o),
(338,412,o),
(369,412,cs),
(384,412,o),
(394,406,o),
(394,378,cs),
(394,305,o),
(352,132,o),
(299,23,c),
(299,-7,o),
(312,-12,o),
(316,-12,c),
(450,8,l),
(456,27,l),
(445,35,o),
(407,48,o),
(381,53,c),
(445,269,o),
(461,326,o),
(461,374,cs),
(461,428,o),
(439,468,o),
(399,468,cs),
(346,468,o),
(283,425,o),
(174,247,c),
(190,343,o),
(195,398,o),
(195,427,cs),
(195,457,o),
(190,462,o),
(186,462,c),
(62,443,l),
(56,424,l),
(73,411,o),
(105,397,o),
(136,394,c),
(136,315,o),
(90,106,o),
(40,-3,c),
(55,-12,l),
(63,-12,o),
(95,-10,o),
(130,3,c,{
name = hr00;
})
);
}
);
width = 531;
}
);
unicode = 110;
},
{
glyphname = eng;
layers = (
{
layerId = master01;
shapes = (
{
closed = 1;
nodes = (
(146,-189,o),
(113,-184,o),
(74,-174,c),
(57,-226,l),
(77,-234,o),
(126,-252,o),
(150,-252,c),
(255,-226,o),
(324,-151,o),
(382,53,cs),
(415,168,o),
(461,320,o),
(461,374,cs),
(461,428,o),
(439,468,o),
(399,468,cs),
(346,468,o),
(283,425,o),
(174,247,c),
(190,343,o),
(195,398,o),
(195,427,cs),
(195,457,o),
(190,462,o),
(186,462,c),
(62,443,l),
(56,424,l),
(73,411,o),
(105,397,o),
(136,394,c),
(136,315,o),
(90,106,o),
(40,-3,c),
(55,-12,l),
(63,-12,o),
(95,-10,o),
(130,3,c),
(141,61,o),
(151,111,o),
(159,156,c),
(273,346,o),
(338,412,o),
(369,412,cs),
(384,412,o),
(394,406,o),
(394,378,cs),
(394,296,o),
(308,-21,o),
(247,-145,cs),
(232,-176,o),
(213,-189,o),
(184,-189,cs,{
name = hr00;
})
);
}
);
width = 511;
}
);
unicode = 331;
},
{
glyphname = o;
layers = (
{
layerId = master01;
shapes = (
{
closed = 1;
nodes = (
(205,468,o),
(30,388,o),
(30,133,cs),
(30,44,o),
(71,-12,o),
(153,-12,cs),
(236,-12,o),
(419,68,o),
(419,323,cs),
(419,412,o),
(378,468,o),
(288,468,cs,{
name = hr00;
})
);
},
{
closed = 1;
nodes = (
(329,426,o),
(355,391,o),
(355,330,cs),
(355,147,o),
(248,36,o),
(158,36,cs),
(115,36,o),
(94,70,o),
(94,130,cs),
(94,314,o),
(187,426,o),
(286,426,cs)
);
}
);
width = 449;
}
);
unicode = 111;
},
{
glyphname = oe;
layers = (
{
layerId = master01;
shapes = (
{
closed = 1;
nodes = (
(533,232,o),
(601,315,o),
(601,407,cs),
(601,440,o),
(552,468,o),
(516,468,cs),
(490,468,o),
(441,455,o),
(393,420,c),
(372,450,o),
(337,468,o),
(288,468,cs),
(205,468,o),
(30,388,o),
(30,133,cs),
(30,44,o),
(71,-12,o),
(153,-12,cs),
(185,-12,o),
(233,0,o),
(280,30,c),
(296,4,o),
(322,-12,o),
(357,-12,cs),
(450,-12,o),
(521,80,o),
(552,127,c),
(530,149,l),
(491,92,o),
(429,44,o),
(381,44,cs),
(340,44,o),
(325,74,o),
(325,120,cs),
(325,150,o),
(327,182,o),
(332,212,c),
(443,223,ls,{
name = hr00;
})
);
},
{
closed = 1;
nodes = (
(258,108,o),
(259,94,o),
(261,82,c),
(230,52,o),
(194,36,o),
(158,36,cs),
(115,36,o),
(94,70,o),
(94,130,cs),
(94,314,o),
(186,426,o),
(286,426,cs),
(315,426,o),
(337,410,o),
(347,380,c),
(298,326,o),
(258,244,o),
(258,122,cs)
);
},
{
closed = 1;
nodes = (
(535,325,o),
(485,256,o),
(409,256,cs),
(341,256,l),
(364,345,o),
(410,416,o),
(481,416,cs),
(524,416,o),
(535,412,o),
(535,400,cs)
);
}
);
width = 631;
}
);
unicode = 339;
},
{
glyphname = p;
layers = (
{
layerId = master01;
shapes = (
{
closed = 1;
nodes = (
(83,-192,o),
(103,-98,o),
(124,5,c),
(147,-3,o),
(171,-11,o),
(186,-11,c),
(300,17,o),
(459,115,o),
(459,374,cs),
(459,428,o),
(437,468,o),
(397,468,cs),
(344,468,o),
(281,425,o),
(172,247,c),
(184,318,o),
(193,381,o),
(193,421,cs),
(193,451,o),
(188,456,o),
(184,456,c),
(60,437,l),
(54,418,l),
(71,405,o),
(104,391,o),
(135,388,c),
(135,309,o),
(35,-144,o),
(-15,-253,c),
(0,-262,l),
(8,-262,o),
(41,-260,o),
(75,-247,c,{
name = hr00;
})
);
},
{
closed = 1;
nodes = (
(392,231,o),
(336,46,o),
(218,46,cs),
(189,46,o),
(162,50,o),
(135,54,c),
(154,151,l),
(270,344,o),
(335,412,o),
(367,412,cs),
(382,412,o),
(392,398,o),
(392,376,cs)
);
}
);
width = 499;
}
);
unicode = 112;
},
{
glyphname = thorn;
layers = (
{
layerId = master01;
shapes = (
{
closed = 1;
nodes = (
(-24,-262,l),
(-16,-262,o),
(17,-260,o),
(51,-247,c),
(59,-192,o),
(79,-97,o),
(100,5,c),
(123,-3,o),
(147,-11,o),
(162,-11,c),
(276,17,o),
(435,115,o),
(435,374,cs),
(435,428,o),
(413,468,o),
(373,468,cs),
(320,468,o),
(257,425,o),
(148,246,c),
(186,429,o),
(248,680,o),
(284,753,c),
(269,762,l),
(261,762,o),
(230,760,o),
(196,747,c),
(173,637,o),
(134,444,o),
(92,250,cs),
(50,56,o),
(5,-140,o),
(-39,-253,c,{
name = hr00;
})
);
},
{
closed = 1;
nodes = (
(368,231,o),
(312,46,o),
(194,46,cs),
(165,46,o),
(138,49,o),
(110,54,c),
(117,87,o),
(124,119,o),
(130,151,c),
(246,344,o),
(311,412,o),
(343,412,cs),
(358,412,o),
(368,398,o),
(368,376,cs)
);
}
);
width = 475;
}
);
unicode = 254;
},
{
glyphname = q;
layers = (
{
layerId = master01;
shapes = (
{
closed = 1;
nodes = (
(245,-257,o),
(258,-262,o),
(262,-262,c),
(391,-242,l),
(397,-223,l),
(385,-215,o),
(349,-202,o),
(322,-197,c),
(330,-123,o),
(405,317,o),
(450,431,c),
(429,438,o),
(338,467,o),
(313,467,c),
(199,439,o),
(40,341,o),
(40,82,cs),
(40,28,o),
(62,-12,o),
(102,-12,cs),
(155,-12,o),
(219,27,o),
(334,195,c),
(295,15,o),
(245,-192,o),
(245,-227,cs,{
name = hr00;
})
);
},
{
closed = 1;
nodes = (
(107,225,o),
(163,410,o),
(281,410,cs),
(313,410,o),
(343,405,o),
(375,399,c),
(370,365,o),
(361,321,o),
(351,272,c),
(229,101,o),
(163,44,o),
(132,44,cs),
(117,44,o),
(107,58,o),
(107,80,cs)
);
}
);
width = 470;
}
);
unicode = 113;
},
{
glyphname = r;
layers = (
{
layerId = master01;
shapes = (
{
closed = 1;
nodes = (
(63,-12,o),
(95,-10,o),
(130,3,c),
(163,177,l),
(262,345,ls),
(285,384,o),
(299,390,o),
(369,390,c),
(378,405,l),
(378,411,o),
(376,438,o),
(363,468,c),
(315,455,o),
(269,434,o),
(209,321,cs),
(177,260,l),
(190,345,o),
(195,393,o),
(195,421,cs),
(195,451,o),
(190,456,o),
(186,456,c),
(62,437,l),
(56,418,l),
(73,405,o),
(105,391,o),
(136,388,c),
(136,309,o),
(90,106,o),
(40,-3,c),
(55,-12,l,{
name = hr00;
})
);
}
);
width = 363;
}
);
unicode = 114;
},
{
glyphname = s;
layers = (
{
layerId = master01;
shapes = (
{
closed = 1;
nodes = (
(170,460,o),
(71,405,o),
(71,327,cs),
(71,284,o),
(94,264,o),
(125,237,cs),
(207,167,ls),
(232,145,o),
(247,128,o),
(247,104,cs),
(247,51,o),
(209,30,o),
(164,30,cs),
(134,30,o),
(101,36,o),
(71,47,c),
(69,82,o),
(63,117,o),
(59,136,c),
(40,140,l),
(10,14,l),
(59,-4,o),
(110,-12,o),
(156,-12,cs),
(241,-12,o),
(313,32,o),
(313,118,cs),
(313,160,o),
(291,183,o),
(249,219,cs),
(150,303,ls),
(134,316,o),
(126,334,o),
(126,350,cs),
(126,382,o),
(153,411,o),
(207,411,cs),
(254,411,o),
(285,404,o),
(328,396,c),
(343,442,l),
(322,449,o),
(265,468,o),
(250,468,c,{
name = hr00;
})
);
}
);
width = 358;
}
);
unicode = 115;
},
{
glyphname = germandbls;
layers = (
{
layerId = master01;
shapes = (
{
closed = 1;
nodes = (
(425,745,o),
(380,761,o),
(359,761,c),
(244,736,o),
(153,610,o),
(126,455,c),
(94,444,o),
(64,433,o),
(36,422,c),
(44,396,l),
(116,396,l),
(15,-193,l),
(55,-188,l),
(122,53,l),
(196,449,ls),
(218,570,o),
(252,696,o),
(325,696,cs),
(364,696,o),
(390,693,o),
(432,682,c),
(428,548,o),
(262,438,o),
(262,339,cs),
(262,296,o),
(276,276,o),
(308,248,cs),
(403,166,ls),
(425,147,o),
(442,126,o),
(442,97,cs),
(442,53,o),
(405,32,o),
(361,32,cs),
(332,32,o),
(300,37,o),
(270,48,c),
(268,84,o),
(262,118,o),
(258,137,c),
(236,141,l),
(206,14,l),
(254,-4,o),
(306,-12,o),
(353,-12,cs),
(439,-12,o),
(511,32,o),
(511,105,cs),
(511,154,o),
(489,180,o),
(447,217,cs),
(341,309,ls),
(326,321,o),
(318,340,o),
(318,354,cs),
(318,414,o),
(496,545,o),
(496,666,cs,{
name = hr01;
}),
(496,687,o),
(491,706,o),
(479,725,c)
);
}
);
width = 521;
}
);
unicode = 223;
},
{
glyphname = t;
layers = (
{
layerId = master01;
shapes = (
{
closed = 1;
nodes = (
(167,549,o),
(157,502,o),
(147,457,c),
(57,442,l),
(56,437,o),
(55,430,o),
(55,424,cs),
(55,415,o),
(57,408,o),
(66,408,cs),
(136,408,l),
(96,221,o),
(72,59,o),
(72,23,cs),
(72,-7,o),
(85,-12,o),
(89,-12,c),
(243,11,l),
(249,30,l),
(235,41,o),
(161,53,o),
(129,53,c),
(129,107,o),
(164,269,o),
(202,408,c),
(296,408,ls),
(310,408,o),
(315,445,o),
(315,451,c),
(214,451,l),
(232,513,o),
(249,568,o),
(263,601,c),
(248,610,l),
(240,610,o),
(213,608,o),
(179,595,c,{
name = hr00;
})
);
}
);
width = 295;
}
);
unicode = 116;
},
{
glyphname = u;
layers = (
{
layerId = master01;
shapes = (
{
closed = 1;
nodes = (
(208,457,o),
(203,462,o),
(199,462,cs),
(54,443,l),
(48,424,l),
(65,411,o),
(97,397,o),
(128,394,c),
(63,173,o),
(55,125,o),
(55,77,cs),
(55,23,o),
(77,-17,o),
(117,-17,cs),
(169,-17,o),
(232,25,o),
(340,201,c),
(324,107,o),
(319,51,o),
(319,23,cs),
(319,-7,o),
(332,-12,o),
(336,-12,c,{
name = hr01;
}),
(460,7,l),
(466,26,l),
(452,37,o),
(405,50,o),
(376,53,c),
(376,132,o),
(426,348,o),
(476,457,c),
(461,466,l),
(453,466,o),
(421,464,o),
(386,451,c),
(374,391,o),
(364,339,o),
(356,294,c),
(235,95,o),
(175,39,o),
(144,39,cs),
(129,39,o),
(122,45,o),
(122,67,cs),
(122,146,o),
(162,314,o),
(208,427,c)
);
}
);
width = 516;
}
);
unicode = 117;
},
{
glyphname = v;
layers = (
{
layerId = master01;
shapes = (
{
closed = 1;
nodes = (
(285,110,o),
(381,352,o),
(422,459,c),
(407,468,l),
(400,468,o),
(372,463,o),
(337,433,c),
(334,408,o),
(330,380,o),
(325,350,cs),
(289,250,o),
(232,133,o),
(185,73,c),
(151,442,o),
(144,468,o),
(139,468,c),
(27,449,l),
(21,430,l),
(33,417,o),
(57,403,o),
(80,400,c),
(136,-12,l),
(178,-6,l,{
name = hr00;
})
);
}
);
width = 409;
}
);
unicode = 118;
},
{
glyphname = w;
layers = (
{
layerId = master01;
shapes = (
{
closed = 1;
nodes = (
(224,60,o),
(278,166,o),
(321,265,c),
(345,-12,l),
(390,-6,l),
(492,110,o),
(582,352,o),
(621,459,c),
(606,468,l),
(599,468,o),
(571,463,o),
(536,433,c),
(526,350,l),
(492,250,o),
(439,133,o),
(394,73,c),
(381,226,o),
(373,320,o),
(367,377,c),
(398,459,l),
(383,468,l),
(376,468,o),
(342,460,o),
(307,430,c),
(313,364,l),
(279,264,o),
(216,133,o),
(171,73,c),
(153,442,o),
(148,468,o),
(145,468,cs),
(33,449,l),
(27,430,l),
(39,417,o),
(63,403,o),
(86,400,c),
(122,-12,l),
(167,-6,l,{
name = hr00;
})
);
}
);
width = 608;
}
);
unicode = 119;
},
{
glyphname = x;
layers = (
{
layerId = master01;
shapes = (
{
closed = 1;
nodes = (
(398,29,l),
(384,40,o),
(337,53,o),
(308,56,c),
(280,97,o),
(264,164,o),
(249,233,c),
(332,310,o),
(400,398,o),
(436,454,c),
(421,463,l),
(413,463,o),
(385,461,o),
(351,448,c),
(341,417,o),
(325,385,o),
(304,347,c),
(285,324,o),
(263,299,o),
(239,276,c),
(222,353,o),
(203,426,o),
(167,462,c),
(52,443,l),
(46,424,l),
(57,413,o),
(99,400,o),
(125,397,c),
(155,358,o),
(172,297,o),
(186,232,c),
(97,151,o),
(27,57,o),
(-10,-2,c),
(4,-11,l),
(11,-11,o),
(39,-9,o),
(74,4,c),
(85,37,o),
(103,70,o),
(126,110,c),
(145,135,o),
(169,164,o),
(196,190,c),
(213,109,o),
(229,30,o),
(266,-9,c),
(392,10,l,{
name = hr00;
})
);
}
);
width = 426;
}
);
unicode = 120;
},
{
glyphname = y;
layers = (
{
layerId = master01;
shapes = (
{
closed = 1;
nodes = (
(407,468,l),
(400,468,o),
(372,463,o),
(337,433,c),
(334,408,o),
(330,380,o),
(325,350,c),
(289,250,o),
(232,133,o),
(185,73,c),
(151,442,o),
(144,468,o),
(139,468,c),
(27,449,l),
(21,430,l),
(33,417,o),
(57,403,o),
(80,400,c),
(135,-3,l),
(96,-100,o),
(68,-197,o),
(54,-255,c),
(70,-262,l),
(78,-261,o),
(109,-253,o),
(144,-219,c),
(143,-194,o),
(143,-166,o),
(143,-136,c),
(178,-5,l),
(285,110,o),
(381,352,o),
(422,459,c,{
name = hr00;
})
);
}
);
width = 409;
}
);
unicode = 121;
},
{
glyphname = z;
layers = (
{
layerId = master01;
shapes = (
{
closed = 1;
nodes = (
(16,-12,l),
(51,3,l),
(162,-1,o),
(261,-3,o),
(313,-7,c),
(326,8,o),
(338,27,o),
(344,46,c),
(338,63,l),
(294,52,o),
(205,46,o),
(106,44,c),
(414,456,l),
(395,471,l),
(343,445,l),
(231,447,o),
(128,452,o),
(87,462,c),
(81,445,l),
(87,425,o),
(99,406,o),
(112,389,c),
(150,393,o),
(220,398,o),
(302,405,c),
(0,1,l,{
name = hr00;
})
);
}
);
width = 404;
}
);
unicode = 122;
},
{
glyphname = fi;
layers = (
{
layerId = master01;
shapes = (
{
closed = 1;
nodes = (
(316,183,o),
(298,68,o),
(298,23,cs),
(298,-7,o),
(310,-12,o),
(315,-12,c),
(439,7,l),
(445,26,l),
(431,37,o),
(384,50,o),
(355,53,c),
(355,117,o),
(417,370,o),
(460,479,c),
(445,488,l),
(437,488,o),
(408,480,o),
(373,451,c),
(193,451,l),
(215,574,o),
(244,699,o),
(321,699,cs),
(365,699,o),
(404,688,o),
(451,679,c),
(468,728,l),
(445,736,o),
(385,762,o),
(355,762,c),
(250,736,o),
(165,663,o),
(127,455,c),
(51,442,l),
(50,437,o),
(49,430,o),
(49,424,cs),
(49,415,o),
(51,408,o),
(60,408,cs),
(119,408,l),
(15,-194,l),
(52,-189,l),
(119,52,l),
(185,408,l),
(364,408,l,{
name = hr00;
})
);
}
);
width = 492;
}
);
unicode = 64257;
},
{
glyphname = ordfeminine;
layers = (
{
layerId = master01;
shapes = (
{
closed = 1;
nodes = (
(112,665,o),
(16,607,o),
(16,452,cs),
(16,419,o),
(31,393,o),
(58,393,cs),
(90,393,o),
(124,418,o),
(184,513,c),
(177,473,o),
(173,438,o),
(173,418,cs),
(173,397,o),
(185,393,o),
(190,393,c),
(267,405,l),
(272,421,l),
(262,427,o),
(236,435,o),
(218,438,c),
(220,487,o),
(249,613,o),
(278,676,c),
(267,679,o),
(256,680,o),
(242,680,c,{
name = hr01;
}),
(237,668,l),
(232,670,ls),
(217,676,o),
(195,683,o),
(182,683,c)
);
},
{
closed = 1;
nodes = (
(67,535,o),
(99,642,o),
(164,642,cs,{
name = hr03;
}),
(178,642,o),
(192,641,o),
(207,638,c),
(196,585,l),
(129,473,o),
(93,433,o),
(76,433,cs),
(71,433,o),
(67,440,o),
(67,451,cs)
);
},
{
closed = 1;
nodes = (
(46,304,o),
(105,298,o),
(161,298,cs),
(198,298,o),
(234,302,o),
(258,306,c),
(262,349,l),
(18,349,l),
(12,321,l)
);
}
);
width = 283;
}
);
unicode = 170;
},
{
glyphname = ordmasculine;
layers = (
{
layerId = master01;
shapes = (
{
closed = 1;
nodes = (
(167,684,o),
(60,636,o),
(60,483,cs),
(60,428,o),
(86,393,o),
(139,393,cs),
(190,393,o),
(301,441,o),
(301,595,cs),
(301,649,o),
(275,684,o),
(218,684,cs,{
name = hr00;
})
);
},
{
closed = 1;
nodes = (
(238,652,o),
(252,632,o),
(252,599,cs),
(252,492,o),
(192,429,o),
(142,429,cs),
(120,429,o),
(109,448,o),
(109,481,cs),
(109,587,o),
(161,652,o),
(217,652,cs)
);
},
{
closed = 1;
nodes = (
(59,304,o),
(118,298,o),
(174,298,cs),
(211,298,o),
(247,302,o),
(271,306,c),
(275,349,l),
(31,349,l),
(25,321,l)
);
}
);
width = 301;
}
);
unicode = 186;
},
{
glyphname = pi;
layers = (
{
layerId = master01;
shapes = (
{
closed = 1;
nodes = (
(340,170,o),
(337,149,o),
(337,131,cs),
(337,84,o),
(352,50,o),
(387,-12,c),
(416,7,l),
(405,51,o),
(399,70,o),
(399,99,cs),
(399,120,o),
(402,147,o),
(410,192,cs),
(447,399,l),
(514,399,ls),
(527,399,o),
(532,429,o),
(533,436,c),
(534,437,o),
(419,457,o),
(404,457,cs),
(218,457,ls),
(203,457,o),
(82,437,o),
(81,436,cs),
(80,433,o),
(79,424,o),
(79,417,cs),
(79,408,o),
(81,399,o),
(88,399,cs),
(156,399,l),
(86,0,l,{
name = hr01;
}),
(153,0,l),
(223,399,l),
(379,399,l),
(344,195,ls)
);
}
);
width = 495;
}
);
unicode = 960;
},
{
glyphname = zero;
layers = (
{
layerId = master01;
shapes = (
{
closed = 1;
nodes = (
(480,498,o),
(411,563,o),
(315,563,cs),
(121,563,o),
(31,334,o),
(31,179,cs),
(31,50,o),
(96,-12,o),
(192,-12,cs),
(388,-12,o),
(480,209,o),
(480,368,c,{
name = hr00;
})
);
},
{
closed = 1;
nodes = (
(143,37,o),
(107,80,o),
(107,170,cs),
(107,289,o),
(155,513,o),
(301,513,cs),
(368,513,o),
(402,470,o),
(402,380,cs),
(402,262,o),
(356,37,o),
(209,37,cs)
);
}
);
width = 484;
}
);
unicode = 48;
},
{
glyphname = one;
layers = (
{
layerId = master01;
shapes = (
{
closed = 1;
nodes = (
(368,34,o),
(328,47,o),
(292,55,c),
(385,532,ls),
(385,535,o),
(386,537,o),
(386,540,cs),
(386,552,o),
(380,560,o),
(374,563,c),
(358,563,o),
(157,519,o),
(157,518,c),
(172,466,l),
(304,499,l),
(219,57,l),
(167,48,o),
(120,37,o),
(75,26,c),
(83,0,l),
(396,0,l),
(402,22,l,{
name = hr00;
})
);
}
);
width = 484;
}
);
unicode = 49;
},
{
glyphname = two;
layers = (
{
layerId = master01;
shapes = (
{
closed = 1;
nodes = (
(140,0,o),
(329,0,o),
(391,-4,c,{
name = hr01;
}),
(405,14,o),
(416,34,o),
(422,55,c),
(416,72,l),
(361,62,o),
(223,50,o),
(73,47,c),
(271,208,ls),
(355,276,o),
(421,347,o),
(421,427,cs),
(421,507,o),
(328,551,o),
(244,563,c),
(213,563,o),
(136,537,o),
(109,529,c),
(121,489,l),
(164,496,o),
(199,504,o),
(241,504,cs),
(311,504,o),
(345,465,o),
(345,429,cs),
(345,379,o),
(309,328,o),
(261,283,cs,{
name = hr02;
}),
(-3,32,l),
(12,0,l)
);
}
);
width = 484;
}
);
unicode = 50;
},
{
glyphname = three;
layers = (
{
layerId = master01;
shapes = (
{
closed = 1;
nodes = (
(443,521,o),
(344,550,o),
(270,563,c),
(239,563,o),
(162,537,o),
(135,529,c),
(147,489,l),
(194,496,o),
(231,504,o),
(277,504,cs),
(340,504,o),
(371,465,o),
(371,429,cs),
(371,363,o),
(308,287,o),
(188,272,c),
(187,238,l),
(288,237,o),
(338,189,o),
(338,128,cs,{
name = hr01;
}),
(338,30,o),
(248,-19,o),
(172,-19,cs),
(139,-19,o),
(106,-11,o),
(79,4,c),
(80,14,o),
(81,45,o),
(81,64,cs),
(81,78,o),
(80,91,o),
(80,105,c),
(59,109,l),
(8,-29,l),
(49,-52,o),
(114,-68,o),
(180,-68,cs),
(283,-68,o),
(415,8,o),
(415,134,cs),
(415,194,o),
(373,248,o),
(292,264,c),
(379,295,o),
(443,363,o),
(443,427,cs)
);
}
);
width = 484;
}
);
unicode = 51;
},
{
glyphname = four;
layers = (
{
layerId = master01;
shapes = (
{
closed = 1;
nodes = (
(395,-22,o),
(364,-10,o),
(335,-3,c),
(353,89,l),
(447,89,l),
(456,134,l),
(361,134,l),
(405,357,ls),
(405,360,o),
(406,362,o),
(406,365,cs),
(406,377,o),
(400,385,o),
(394,388,c),
(378,388,o),
(339,380,o),
(339,379,c),
(291,134,l),
(65,134,l),
(330,562,l),
(265,584,l),
(54,218,ls),
(6,135,o),
(-8,102,o),
(-8,101,cs),
(-8,90,o),
(3,89,o),
(17,89,cs),
(283,89,l),
(266,1,l),
(223,-8,o),
(183,-19,o),
(145,-30,c),
(153,-56,l),
(416,-56,l),
(422,-34,l,{
name = hr00;
})
);
}
);
width = 484;
}
);
unicode = 52;
},
{
glyphname = five;
layers = (
{
layerId = master01;
shapes = (
{
closed = 1;
nodes = (
(71,14,o),
(72,45,o),
(72,64,cs),
(72,78,o),
(71,91,o),
(71,105,c),
(50,109,l),
(-1,-29,l),
(41,-52,o),
(105,-68,o),
(172,-68,cs),
(280,-68,o),
(407,11,o),
(407,142,cs),
(407,227,o),
(350,299,o),
(189,299,cs),
(180,299,o),
(170,299,o),
(161,298,c),
(217,485,l),
(308,485,o),
(378,484,o),
(427,481,c),
(441,499,o),
(452,519,o),
(458,540,c),
(452,557,l),
(396,546,o),
(310,532,o),
(186,532,cs),
(166,532,l),
(106,265,l),
(129,242,l),
(145,245,o),
(167,247,o),
(183,247,cs),
(280,247,o),
(329,195,o),
(329,128,cs),
(329,30,o),
(240,-19,o),
(164,-19,cs),
(131,-19,o),
(97,-11,o),
(70,4,c,{
name = hr00;
})
);
}
);
width = 484;
}
);
unicode = 53;
},
{
glyphname = six;
layers = (
{
layerId = master01;
shapes = (
{
closed = 1;
nodes = (
(257,558,o),
(41,394,o),
(41,157,cs),
(41,39,o),
(117,-12,o),
(203,-12,cs),
(311,-12,o),
(442,71,o),
(442,213,cs),
(442,305,o),
(370,350,o),
(282,350,cs),
(173,350,l),
(241,471,o),
(366,562,o),
(481,632,c),
(456,670,l,{
name = hr00;
})
);
},
{
closed = 1;
nodes = (
(318,302,o),
(361,283,o),
(361,216,cs),
(361,103,o),
(282,40,o),
(210,40,cs),
(157,40,o),
(123,85,o),
(123,163,cs),
(123,207,o),
(130,248,o),
(144,286,c),
(183,295,o),
(223,302,o),
(260,302,cs)
);
}
);
width = 484;
}
);
unicode = 54;
},
{
glyphname = seven;
layers = (
{
layerId = master01;
shapes = (
{
closed = 1;
nodes = (
(499,546,l),
(475,564,l),
(443,532,l),
(277,532,o),
(166,546,o),
(93,557,c),
(87,540,l),
(93,519,o),
(104,499,o),
(118,481,c),
(186,484,o),
(273,485,o),
(408,485,c),
(98,-49,l),
(170,-68,l,{
name = hr00;
})
);
}
);
width = 484;
}
);
unicode = 55;
},
{
glyphname = eight;
layers = (
{
layerId = master01;
shapes = (
{
closed = 1;
nodes = (
(32,46,o),
(93,-12,o),
(196,-12,cs),
(342,-12,o),
(435,85,o),
(435,189,cs),
(435,262,o),
(386,310,o),
(338,345,c),
(443,401,o),
(481,491,o),
(481,543,cs),
(481,616,o),
(425,668,o),
(334,668,cs),
(201,668,o),
(122,577,o),
(122,480,cs),
(122,420,o),
(152,379,o),
(196,346,c),
(75,285,o),
(32,183,o),
(32,127,cs,{
name = hr00;
})
);
},
{
closed = 1;
nodes = (
(325,250,o),
(352,219,o),
(352,175,cs),
(352,89,o),
(275,37,o),
(207,37,cs),
(141,37,o),
(112,78,o),
(112,132,cs),
(112,185,o),
(149,266,o),
(229,322,c),
(299,270,ls)
);
},
{
closed = 1;
nodes = (
(199,568,o),
(255,619,o),
(324,619,cs),
(380,619,o),
(404,584,o),
(404,539,cs),
(404,493,o),
(377,418,o),
(306,368,c),
(261,400,ls),
(228,423,o),
(199,457,o),
(199,499,cs)
);
}
);
width = 484;
}
);
unicode = 56;
},
{
glyphname = nine;
layers = (
{
layerId = master01;
shapes = (
{
closed = 1;
nodes = (
(62,-131,l),
(267,-2,o),
(474,158,o),
(474,390,cs),
(474,510,o),
(397,563,o),
(310,563,cs),
(200,563,o),
(75,476,o),
(75,335,cs),
(75,239,o),
(146,192,o),
(236,192,cs),
(333,192,l),
(266,72,o),
(148,-20,o),
(38,-97,c,{
name = hr00;
})
);
},
{
closed = 1;
nodes = (
(359,512,o),
(388,470,o),
(388,395,cs),
(388,345,o),
(379,299,o),
(363,256,c),
(322,245,o),
(287,240,o),
(260,240,cs),
(183,240,o),
(154,279,o),
(154,335,cs),
(154,422,o),
(212,512,o),
(303,512,cs)
);
}
);
width = 484;
}
);
unicode = 57;
},
{
glyphname = fraction;
layers = (
{
layerId = master01;
shapes = (
{
closed = 1;
nodes = (
(-1,-208,l),
(365,672,l),
(306,672,l),
(-60,-208,l,{
name = hr00;
})
);
}
);
width = 305;
}
);
unicode = 8260;
},
{
glyphname = onehalf;
layers = (
{
layerId = master01;
shapes = (
{
closed = 1;
nodes = (
(285,172,o),
(252,180,o),
(226,185,c),
(290,549,l),
(290,552,o),
(291,554,o),
(291,555,cs),
(291,565,o),
(285,571,o),
(278,573,c),
(266,573,o),
(105,536,o),
(104,535,c),
(104,532,o),
(104,530,o),
(115,496,c),
(226,523,l),
(166,187,l),
(130,181,o),
(97,173,o),
(67,167,c),
(74,143,l),
(308,143,l),
(314,163,l,{
name = hr00;
})
);
},
{
closed = 1;
nodes = (
(876,0,l),
(886,12,o),
(894,26,o),
(898,39,c),
(893,55,l),
(852,49,o),
(755,38,o),
(654,35,c),
(793,138,ls),
(834,168,o),
(913,234,o),
(913,320,cs),
(913,378,o),
(860,417,o),
(781,430,c),
(759,430,o),
(709,417,o),
(668,405,c),
(677,371,l),
(735,381,o),
(753,385,o),
(773,385,cs),
(824,385,o),
(848,352,o),
(848,314,cs),
(848,274,o),
(828,233,o),
(784,196,cs),
(581,26,l),
(598,0,l)
);
},
{
closed = 1;
nodes = (
(359,-56,l),
(674,622,l),
(623,622,l),
(308,-56,l)
);
}
);
width = 990;
}
);
unicode = 189;
},
{
glyphname = onequarter;
layers = (
{
layerId = master01;
shapes = (
{
closed = 1;
nodes = (
(285,172,o),
(252,180,o),
(226,185,c),
(290,549,l),
(290,552,o),
(291,554,o),
(291,555,cs),
(291,565,o),
(285,571,o),
(278,573,c),
(266,573,o),
(105,536,o),
(104,535,c),
(104,532,o),
(104,530,o),
(115,496,c),
(226,523,l),
(166,187,l),
(130,181,o),
(97,173,o),
(67,167,c),
(74,143,l),
(308,143,l),
(314,163,l,{
name = hr00;
})
);
},
{
closed = 1;
nodes = (
(852,28,o),
(832,35,o),
(814,40,c),
(817,58,o),
(822,75,o),
(825,92,c),
(892,92,l),
(897,129,l),
(831,129,l),
(855,266,l),
(855,273,ls),
(855,282,o),
(852,292,o),
(846,292,cs),
(830,292,o),
(801,285,o),
(801,285,c),
(773,129,l),
(637,129,l),
(813,421,l),
(761,439,l),
(617,181,ls),
(586,125,o),
(577,103,o),
(577,103,c),
(577,94,o),
(585,92,o),
(598,92,cs),
(767,92,l),
(758,43,l),
(726,37,o),
(702,30,o),
(680,24,c),
(687,0,l),
(865,0,l),
(871,20,l)
);
},
{
closed = 1;
nodes = (
(358,-56,l),
(673,622,l),
(622,622,l),
(307,-56,l)
);
}
);
width = 990;
}
);
unicode = 188;
},
{
glyphname = threequarters;
layers = (
{
layerId = master01;
shapes = (
{
closed = 1;
nodes = (
(350,537,o),
(286,565,o),
(232,573,c),
(210,573,o),
(160,560,o),
(119,548,c),
(129,514,l),
(186,524,o),
(204,528,o),
(225,528,cs),
(267,528,o),
(289,502,o),
(289,478,cs),
(289,423,o),
(250,385,o),
(155,374,c),
(155,343,l),
(235,343,o),
(276,310,o),
(276,268,cs),
(276,206,o),
(213,174,o),
(161,174,cs),
(140,174,o),
(119,178,o),
(98,188,c),
(99,201,o),
(99,212,o),
(99,254,c),
(75,256,l),
(40,163,l),
(72,147,o),
(121,135,o),
(168,135,cs),
(246,135,o),
(337,189,o),
(337,277,cs),
(337,317,o),
(313,352,o),
(265,366,c),
(315,391,o),
(350,430,o),
(350,478,cs)
);
},
{
closed = 1;
nodes = (
(852,18,o),
(832,25,o),
(814,30,c),
(817,48,o),
(822,65,o),
(825,82,c),
(892,82,l),
(897,119,l),
(831,119,l),
(855,256,l),
(855,263,l),
(855,272,o),
(851,279,o),
(846,282,c),
(830,282,o),
(801,275,o),
(801,275,c),
(773,119,l),
(637,119,l),
(813,411,l),
(761,429,l),
(617,171,l),
(585,115,o),
(577,93,o),
(577,93,c),
(577,84,o),
(585,82,o),
(598,82,c),
(767,82,l),
(758,33,l),
(726,27,o),
(702,20,o),
(680,14,c),
(687,-10,l),
(865,-10,l),
(871,10,l)
);
},
{
closed = 1;
nodes = (
(364,-56,l),
(679,622,l),
(628,622,l),
(313,-56,l)
);
}
);
width = 990;
}
);
unicode = 190;
},
{
glyphname = onesuperior;
layers = (
{
layerId = master01;
shapes = (
{
closed = 1;
nodes = (
(285,204,o),
(252,212,o),
(226,217,c),
(290,581,l),
(290,584,o),
(291,586,o),
(291,587,cs),
(291,597,o),
(285,603,o),
(278,605,c),
(266,605,o),
(105,568,o),
(104,567,c),
(104,564,o),
(104,562,o),
(115,528,c),
(226,555,l),
(166,219,l),
(130,213,o),
(97,205,o),
(67,199,c),
(74,175,l),
(308,175,l),
(314,195,l,{
name = hr00;
})
);
}
);
width = 392;
}
);
unicode = 185;
},
{
glyphname = twosuperior;
layers = (
{
layerId = master01;
shapes = (
{
closed = 1;
nodes = (
(311,175,l),
(321,187,o),
(329,201,o),
(333,214,c),
(328,230,l),
(287,224,o),
(190,213,o),
(89,210,c),
(228,313,l),
(269,343,o),
(348,409,o),
(348,495,cs),
(348,553,o),
(295,592,o),
(216,605,c),
(194,605,o),
(144,592,o),
(103,580,c),
(112,546,l),
(170,556,o),
(188,560,o),
(208,560,cs),
(259,560,o),
(283,527,o),
(283,489,cs),
(283,449,o),
(263,407,o),
(219,371,c),
(16,201,l),
(33,175,l,{
name = hr00;
})
);
}
);
width = 392;
}
);
unicode = 178;
},
{
glyphname = threesuperior;
layers = (
{
layerId = master01;
shapes = (
{
closed = 1;
nodes = (
(350,569,o),
(286,597,o),
(232,605,c),
(210,605,o),
(160,592,o),
(119,580,c),
(129,546,l),
(186,556,o),
(204,560,o),
(225,560,cs),
(267,560,o),
(289,534,o),
(289,510,cs),
(289,455,o),
(250,417,o),
(155,406,c),
(155,375,l),
(235,375,o),
(276,342,o),
(276,300,cs),
(276,238,o),
(213,206,o),
(161,206,cs),
(140,206,o),
(119,210,o),
(98,220,c),
(99,233,o),
(99,244,o),
(99,286,c),
(75,288,l),
(40,195,l),
(72,179,o),
(121,167,o),
(168,167,cs),
(246,167,o),
(337,221,o),
(337,309,cs),
(337,349,o),
(313,384,o),
(265,398,c),
(315,423,o),
(350,462,o),
(350,510,cs)
);
}
);
width = 392;
}
);
unicode = 179;
},
{
glyphname = period;
layers = (
{
layerId = master01;
shapes = (
{
closed = 1;
nodes = (
(102,121,o),
(65,114,o),
(65,114,c),
(62,108,o),
(44,60,o),
(44,26,cs),
(44,4,o),
(51,-12,o),
(73,-12,cs),
(95,-12,o),
(131,-3,o),
(131,-3,c),
(134,3,o),
(151,50,o),
(151,81,cs),
(151,104,o),
(144,121,o),
(123,121,cs,{
name = hr00;
})
);
}
);
width = 197;
}
);
unicode = 46;
},
{
glyphname = comma;
layers = (
{
layerId = master01;
shapes = (
{
closed = 1;
nodes = (
(79,85,o),
(84,62,o),
(84,41,cs),
(84,-13,o),
(55,-55,o),
(17,-107,c),
(39,-123,l),
(62,-101,o),
(152,-4,o),
(168,60,c),
(168,96,o),
(156,121,o),
(126,121,cs),
(109,121,o),
(82,114,o),
(70,110,c,{
name = hr00;
})
);
}
);
width = 197;
}
);
unicode = 44;
},
{
glyphname = ellipsis;
layers = (
{
layerId = master01;
shapes = (
{
closed = 1;
nodes = (
(102,121,o),
(65,114,o),
(65,114,c),
(64,114,o),
(44,60,o),
(44,26,cs),
(44,4,o),
(51,-12,o),
(73,-12,cs),
(95,-12,o),
(131,-3,o),
(131,-3,c,{
name = hr01;
}),
(132,-3,o),
(151,50,o),
(151,81,cs),
(151,104,o),
(144,121,o),
(123,121,cs)
);
},
{
closed = 1;
nodes = (
(299,121,o),
(262,114,o),
(262,114,c),
(261,114,o),
(241,60,o),
(241,26,cs),
(241,4,o),
(248,-12,o),
(270,-12,cs,{
name = hr02;
}),
(292,-12,o),
(328,-3,o),
(328,-3,c,{
name = hr03;
}),
(329,-3,o),
(348,50,o),
(348,81,cs),
(348,104,o),
(341,121,o),
(320,121,cs)
);
},
{
closed = 1;
nodes = (
(496,121,o),
(459,114,o),
(459,114,c),
(458,114,o),
(438,60,o),
(438,26,cs),
(438,4,o),
(445,-12,o),
(467,-12,cs,{
name = hr04;
}),
(489,-12,o),
(525,-3,o),
(525,-3,c,{
name = hr05;
}),
(526,-3,o),
(545,50,o),
(545,81,cs),
(545,104,o),
(538,121,o),
(517,121,cs)
);
}
);
width = 591;
}
);
unicode = 8230;
},
{
glyphname = exclam;
layers = (
{
layerId = master01;
shapes = (
{
closed = 1;
nodes = (
(137,164,l),
(215,350,o),
(252,486,o),
(260,670,c),
(246,679,l),
(239,679,o),
(220,677,o),
(195,664,c),
(105,160,l)
);
},
{
closed = 1;
nodes = (
(107,100,o),
(75,93,o),
(75,93,c),
(74,93,o),
(57,48,o),
(57,20,cs),
(57,1,o),
(64,-13,o),
(81,-13,cs),
(100,-13,o),
(131,-5,o),
(131,-5,c,{
name = hr01;
}),
(132,-5,o),
(148,40,o),
(148,66,cs),
(148,85,o),
(141,100,o),
(123,100,cs)
);
}
);
width = 267;
}
);
unicode = 33;
},
{
glyphname = exclamdown;
layers = (
{
layerId = master01;
shapes = (
{
closed = 1;
nodes = (
(180,355,o),
(212,362,o),
(212,362,c),
(213,362,o),
(230,407,o),
(230,435,cs),
(230,454,o),
(223,468,o),
(206,468,cs),
(187,468,o),
(156,460,o),
(156,460,c),
(155,460,o),
(139,415,o),
(139,389,cs),
(139,370,o),
(146,355,o),
(164,355,cs,{
name = hr00;
})
);
},
{
closed = 1;
nodes = (
(150,291,l),
(72,105,o),
(35,-31,o),
(27,-215,c),
(41,-224,l),
(48,-224,o),
(67,-222,o),
(92,-209,c),
(182,295,l)
);
}
);
width = 287;
}
);
unicode = 161;
},
{
glyphname = question;
layers = (
{
layerId = master01;
shapes = (
{
closed = 1;
nodes = (
(309,423,o),
(247,337,o),
(209,285,cs),
(121,166,l),
(146,148,l),
(235,213,o),
(376,372,o),
(376,498,cs),
(376,621,o),
(273,666,o),
(196,678,c),
(168,678,o),
(101,657,o),
(77,650,c),
(93,601,l),
(143,609,o),
(168,617,o),
(216,617,cs),
(272,617,o),
(309,571,o),
(309,506,cs)
);
},
{
closed = 1;
nodes = (
(120,100,o),
(88,93,o),
(88,93,c),
(87,93,o),
(70,48,o),
(70,20,cs),
(70,1,o),
(77,-13,o),
(94,-13,cs),
(113,-13,o),
(144,-5,o),
(144,-5,c,{
name = hr01;
}),
(145,-5,o),
(161,40,o),
(161,66,cs),
(161,85,o),
(154,100,o),
(136,100,cs)
);
}
);
width = 376;
}
);
unicode = 63;
},
{
glyphname = questiondown;
layers = (
{
layerId = master01;
shapes = (
{
closed = 1;
nodes = (
(277,355,o),
(309,362,o),
(309,362,c),
(310,362,o),
(327,407,o),
(327,435,cs),
(327,454,o),
(320,468,o),
(303,468,cs),
(284,468,o),
(253,460,o),
(253,460,c),
(252,460,o),
(236,415,o),
(236,389,cs),
(236,370,o),
(243,355,o),
(261,355,cs,{
name = hr00;
})
);
},
{
closed = 1;
nodes = (
(88,32,o),
(150,118,o),
(188,170,cs),
(276,289,l),
(251,307,l),
(162,242,o),
(21,83,o),
(21,-43,cs),
(21,-166,o),
(124,-211,o),
(201,-223,c),
(229,-223,o),
(296,-202,o),
(320,-195,c),
(304,-146,l),
(254,-154,o),
(229,-162,o),
(181,-162,cs),
(125,-162,o),
(88,-116,o),
(88,-51,cs)
);
}
);
width = 347;
}
);
unicode = 191;
},
{
glyphname = bullet;
layers = (
{
layerId = master01;
shapes = (
{
closed = 1;
nodes = (
(132,347,o),
(80,338,o),
(80,338,c),
(76,330,o),
(50,274,o),
(50,232,cs),
(50,206,o),
(60,186,o),
(91,186,cs),
(122,186,o),
(173,197,o),
(173,197,c),
(177,205,o),
(201,262,o),
(201,299,cs),
(201,326,o),
(191,347,o),
(161,347,cs,{
name = hr00;
})
);
}
);
width = 251;
}
);
unicode = 8226;
},
{
glyphname = asterisk;
layers = (
{
layerId = master01;
shapes = (
{
closed = 1;
nodes = (
(328,706,o),
(320,712,o),
(299,712,cs),
(277,712,o),
(244,703,o),
(244,679,cs),
(244,639,o),
(250,595,o),
(259,551,c),
(274,551,l),
(293,591,o),
(328,669,o),
(328,690,cs,{
name = hr00;
})
);
},
{
closed = 1;
nodes = (
(100,645,o),
(95,609,o),
(95,594,cs),
(95,579,o),
(100,564,o),
(114,560,cs),
(152,548,o),
(196,540,o),
(240,535,c),
(245,549,l),
(222,571,o),
(150,645,o),
(121,645,cs)
);
},
{
closed = 1;
nodes = (
(444,519,o),
(449,525,o),
(449,535,cs),
(449,540,o),
(448,545,o),
(446,551,cs),
(439,569,o),
(423,594,o),
(404,594,cs),
(375,594,o),
(302,553,o),
(281,538,c),
(285,523,l),
(318,520,o),
(375,514,o),
(409,514,cs),
(420,514,o),
(429,514,o),
(434,516,cs)
);
},
{
closed = 1;
nodes = (
(109,435,o),
(108,431,o),
(108,427,cs),
(108,420,o),
(113,413,o),
(124,405,cs),
(135,397,o),
(152,389,o),
(166,389,cs),
(174,389,o),
(182,392,o),
(187,399,cs),
(210,432,o),
(231,471,o),
(250,512,c),
(238,521,l),
(200,499,o),
(125,457,o),
(113,440,cs)
);
},
{
closed = 1;
nodes = (
(305,355,o),
(310,352,o),
(316,352,cs),
(322,352,o),
(329,355,o),
(338,361,cs),
(351,371,o),
(367,389,o),
(367,406,cs),
(367,411,o),
(366,415,o),
(363,419,cs),
(338,451,o),
(308,483,o),
(275,514,c),
(262,505,l),
(272,462,o),
(288,378,o),
(301,361,cs)
);
}
);
width = 427;
}
);
unicode = 42;
},
{
glyphname = numbersign;
layers = (
{
layerId = master01;
shapes = (
{
closed = 1;
nodes = (
(162,330,l),
(126,225,l),
(22,225,l),
(2,168,l),
(106,168,l),
(47,0,l),
(104,0,l),
(163,168,l),
(268,168,l),
(209,0,l),
(266,0,l),
(325,168,l),
(442,168,l),
(462,225,l),
(345,225,l),
(381,330,l),
(488,330,l),
(508,387,l),
(401,387,l),
(460,554,l),
(403,554,l),
(344,387,l),
(239,387,l),
(298,554,l),
(241,554,l),
(182,387,l),
(68,387,l),
(48,330,l,{
name = hr00;
})
);
},
{
closed = 1;
nodes = (
(324,330,l),
(288,225,l),
(183,225,l),
(219,330,l)
);
}
);
width = 510;
}
);
unicode = 35;
},
{
glyphname = slash;
layers = (
{
layerId = master01;
shapes = (
{
closed = 1;
nodes = (
(24,-50,l),
(357,750,l),
(303,750,l),
(-30,-50,l,{
name = hr00;
})
);
}
);
width = 327;
}
);
unicode = 47;
},
{
glyphname = backslash;
layers = (
{
layerId = master01;
shapes = (
{
closed = 1;
nodes = (
(-30,750,l),
(303,-50,l),
(357,-50,l),
(24,750,l,{
name = hr00;
})
);
}
);
width = 327;
}
);
unicode = 92;
},
{
glyphname = hyphen;
layers = (
{
layerId = master01;
shapes = (
{
closed = 1;
nodes = (
(50,279,l),
(55,229,l),
(83,224,o),
(124,220,o),
(167,220,cs),
(232,220,o),
(301,227,o),
(340,246,c),
(333,279,l,{
name = hr00;
})
);
}
);
width = 390;
}
);
unicode = 45;
},
{
glyphname = endash;
layers = (
{
layerId = master01;
shapes = (
{
closed = 1;
nodes = (
(486,225,l),
(486,281,l),
(125,281,l),
(125,225,l,{
name = hr00;
})
);
}
);
width = 591;
}
);
unicode = 8211;
},
{
glyphname = emdash;
layers = (
{
layerId = master01;
shapes = (
{
closed = 1;
nodes = (
(734,225,l),
(734,281,l),
(125,281,l),
(125,225,l,{
name = hr00;
})
);
}
);
width = 839;
}
);
unicode = 8212;
},
{
glyphname = underscore;
layers = (
{
layerId = master01;
shapes = (
{
closed = 1;
nodes = (
(464,-69,l),
(464,-12,l),
(40,-12,l),
(40,-69,l,{
name = hr00;
})
);
}
);
width = 504;
}
);
unicode = 95;
},
{
glyphname = parenleft;
layers = (
{
layerId = master01;
shapes = (
{
closed = 1;
nodes = (
(131,-162,o),
(113,-46,o),
(113,73,cs),
(113,256,o),
(169,554,o),
(320,716,c),
(297,728,l),
(132,593,o),
(38,333,o),
(38,106,cs),
(38,-27,o),
(69,-154,o),
(135,-241,c),
(165,-237,l,{
name = hr00;
})
);
}
);
width = 235;
}
);
unicode = 40;
},
{
glyphname = parenright;
layers = (
{
layerId = master01;
shapes = (
{
closed = 1;
nodes = (
(104,649,o),
(122,533,o),
(122,413,cs),
(122,231,o),
(65,-67,o),
(-85,-229,c),
(-60,-241,l),
(102,-106,o),
(197,152,o),
(197,378,cs),
(197,512,o),
(165,641,o),
(101,728,c),
(70,724,l,{
name = hr00;
})
);
}
);
width = 235;
}
);
unicode = 41;
},
{
glyphname = braceleft;
layers = (
{
layerId = master01;
shapes = (
{
closed = 1;
nodes = (
(168,260,o),
(190,278,o),
(190,332,cs),
(190,363,o),
(186,402,o),
(186,463,cs),
(186,516,o),
(189,585,o),
(201,680,c),
(220,680,o),
(314,696,o),
(314,697,c),
(322,731,l),
(156,731,l),
(133,629,o),
(114,542,o),
(114,446,cs),
(114,396,o),
(119,345,o),
(131,290,c),
(33,263,l),
(29,236,l),
(121,209,l),
(54,60,o),
(38,-83,o),
(38,-233,c),
(195,-233,l),
(205,-199,l),
(205,-198,o),
(114,-182,o),
(95,-182,c),
(125,63,o),
(176,142,o),
(176,200,cs),
(176,228,o),
(153,240,o),
(126,245,c),
(127,253,l,{
name = hr00;
})
);
}
);
width = 258;
}
);
unicode = 123;
},
{
glyphname = braceright;
layers = (
{
layerId = master01;
shapes = (
{
closed = 1;
nodes = (
(90,238,o),
(68,220,o),
(68,166,cs),
(68,135,o),
(72,96,o),
(72,35,cs),
(72,-18,o),
(69,-87,o),
(57,-182,c),
(38,-182,o),
(-56,-198,o),
(-56,-199,c),
(-64,-233,l),
(102,-233,l),
(125,-131,o),
(144,-44,o),
(144,52,cs),
(144,102,o),
(139,153,o),
(127,208,c),
(225,235,l),
(229,262,l),
(137,289,l),
(204,438,o),
(220,581,o),
(220,731,c),
(63,731,l),
(53,697,l),
(53,696,o),
(144,680,o),
(163,680,c),
(133,435,o),
(82,356,o),
(82,298,cs),
(82,270,o),
(105,258,o),
(132,253,c),
(131,245,l,{
name = hr00;
})
);
}
);
width = 258;
}
);
unicode = 125;
},
{
glyphname = bracketleft;
layers = (
{
layerId = master01;
shapes = (
{
closed = 1;
nodes = (
(51,85,o),
(29,-70,o),
(29,-233,c),
(186,-233,l),
(196,-199,l),
(196,-198,o),
(110,-182,o),
(92,-182,c),
(198,680,l),
(216,680,o),
(305,696,o),
(305,697,c),
(313,731,l),
(147,731,l),
(122,616,o),
(103,521,o),
(103,413,cs),
(103,360,o),
(107,307,o),
(117,249,c,{
name = hr00;
})
);
}
);
width = 235;
}
);
unicode = 91;
},
{
glyphname = bracketright;
layers = (
{
layerId = master01;
shapes = (
{
closed = 1;
nodes = (
(184,413,o),
(206,568,o),
(206,731,c),
(49,731,l),
(39,697,l),
(39,696,o),
(125,680,o),
(143,680,c),
(37,-182,l),
(19,-182,o),
(-70,-198,o),
(-70,-199,c),
(-78,-233,l),
(88,-233,l),
(113,-118,o),
(132,-23,o),
(132,85,cs),
(132,138,o),
(128,191,o),
(118,249,c,{
name = hr00;
})
);
}
);
width = 235;
}
);
unicode = 93;
},
{
glyphname = quotedblleft;
layers = (
{
layerId = master01;
shapes = (
{
closed = 1;
nodes = (
(275,530,o),
(270,553,o),
(270,574,cs),
(270,628,o),
(299,670,o),
(337,722,c),
(315,738,l),
(292,716,o),
(202,619,o),
(186,555,c),
(186,519,o),
(198,494,o),
(228,494,cs),
(245,494,o),
(272,501,o),
(284,505,c,{
name = hr00;
})
);
},
{
closed = 1;
nodes = (
(119,530,o),
(114,553,o),
(114,574,cs),
(114,628,o),
(143,670,o),
(181,722,c),
(159,738,l),
(136,716,o),
(46,619,o),
(30,555,c),
(30,519,o),
(42,494,o),
(72,494,cs),
(89,494,o),
(116,501,o),
(128,505,c)
);
}
);
width = 285;
}
);
unicode = 8220;
},
{
glyphname = quotedblright;
layers = (
{
layerId = master01;
shapes = (
{
closed = 1;
nodes = (
(270,694,o),
(275,671,o),
(275,650,cs),
(275,596,o),
(246,554,o),
(208,502,c),
(230,486,l),
(253,508,o),
(343,605,o),
(359,669,c),
(359,705,o),
(347,730,o),
(317,730,cs),
(300,730,o),
(273,723,o),
(261,719,c,{
name = hr00;
})
);
},
{
closed = 1;
nodes = (
(114,694,o),
(119,671,o),
(119,650,cs),
(119,596,o),
(90,554,o),
(52,502,c),
(74,486,l),
(97,508,o),
(187,605,o),
(203,669,c),
(203,705,o),
(191,730,o),
(161,730,cs),
(144,730,o),
(117,723,o),
(105,719,c)
);
}
);
width = 329;
}
);
unicode = 8221;
},
{
glyphname = quoteleft;
layers = (
{
layerId = master01;
shapes = (
{
closed = 1;
nodes = (
(119,530,o),
(114,553,o),
(114,574,cs),
(114,628,o),
(143,670,o),
(181,722,c),
(159,738,l),
(136,716,o),
(46,619,o),
(30,555,c),
(30,519,o),
(42,494,o),
(72,494,cs),
(89,494,o),
(116,501,o),
(128,505,c,{
name = hr00;
})
);
}
);
width = 129;
}
);
unicode = 8216;
},
{
glyphname = quoteright;
layers = (
{
layerId = master01;
shapes = (
{
closed = 1;
nodes = (
(114,694,o),
(119,671,o),
(119,650,cs),
(119,596,o),
(90,554,o),
(52,502,c),
(74,486,l),
(97,508,o),
(187,605,o),
(203,669,c),
(203,705,o),
(191,730,o),
(161,730,cs),
(144,730,o),
(117,723,o),
(105,719,c,{
name = hr00;
})
);
}
);
width = 173;
}
);
unicode = 8217;
},
{
glyphname = guillemotleft;
layers = (
{
layerId = master01;
shapes = (
{
closed = 1;
nodes = (
(348,15,l),
(379,34,l),
(291,227,l),
(448,420,l),
(425,444,l),
(210,241,l),
(205,213,l,{
name = hr00;
})
);
},
{
closed = 1;
nodes = (
(193,15,l),
(225,34,l),
(136,227,l),
(294,420,l),
(270,444,l),
(55,241,l),
(50,213,l)
);
}
);
width = 448;
}
);
unicode = 171;
},
{
glyphname = guillemotright;
layers = (
{
layerId = master01;
shapes = (
{
closed = 1;
nodes = (
(255,439,l),
(223,420,l),
(312,227,l),
(154,34,l),
(178,10,l),
(393,213,l),
(398,241,l,{
name = hr00;
})
);
},
{
closed = 1;
nodes = (
(100,439,l),
(69,420,l),
(157,227,l),
(0,34,l),
(23,10,l),
(238,213,l),
(243,241,l)
);
}
);
width = 448;
}
);
unicode = 187;
},
{
glyphname = guilsinglleft;
layers = (
{
layerId = master01;
shapes = (
{
closed = 1;
nodes = (
(193,15,l),
(225,34,l),
(136,227,l),
(294,420,l),
(270,444,l),
(55,241,l),
(50,213,l,{
name = hr00;
})
);
}
);
width = 294;
}
);
unicode = 8249;
},
{
glyphname = guilsinglright;
layers = (
{
layerId = master01;
shapes = (
{
closed = 1;
nodes = (
(101,439,l),
(69,420,l),
(158,227,l),
(0,34,l),
(24,10,l),
(239,213,l),
(244,241,l,{
name = hr00;
})
);
}
);
width = 294;
}
);
unicode = 8250;
},
{
glyphname = quotedbl;
layers = (
{
layerId = master01;
shapes = (
{
closed = 1;
nodes = (
(252,612,o),
(249,511,o),
(249,474,c),
(276,474,l),
(343,699,l),
(328,708,l),
(322,708,o),
(298,706,o),
(268,693,c,{
name = hr00;
})
);
},
{
closed = 1;
nodes = (
(127,612,o),
(124,511,o),
(124,474,c),
(151,474,l),
(218,699,l),
(203,708,l),
(197,708,o),
(173,706,o),
(143,693,c)
);
}
);
width = 300;
}
);
unicode = 34;
},
{
glyphname = quotesingle;
layers = (
{
layerId = master01;
shapes = (
{
closed = 1;
nodes = (
(127,612,o),
(124,511,o),
(124,474,c),
(151,474,l),
(218,699,l),
(203,708,l),
(197,708,o),
(173,706,o),
(143,693,c,{
name = hr00;
})
);
}
);
width = 175;
}
);
unicode = 39;
},
{
glyphname = florin;
layers = (
{
layerId = master01;
shapes = (
{
closed = 1;
nodes = (
(191,263,l),
(132,-73,ls),
(122,-132,o),
(99,-186,o),
(52,-186,cs),
(26,-186,o),
(-3,-177,o),
(-20,-163,c),
(-44,-202,l),
(-24,-219,o),
(14,-231,o),
(47,-231,cs),
(121,-231,o),
(179,-188,o),
(198,-82,cs),
(258,263,l),
(392,263,l),
(398,300,l),
(265,300,l),
(294,465,ls),
(303,516,o),
(317,552,o),
(363,552,cs),
(403,552,o),
(438,544,o),
(480,536,c),
(496,585,l),
(476,592,o),
(421,613,o),
(397,613,cs),
(312,613,o),
(238,530,o),
(219,424,cs),
(197,300,l),
(107,300,l),
(101,263,l,{
name = hr00;
})
);
}
);
width = 484;
}
);
unicode = 402;
},
{
glyphname = apple;
layers = (
{
layerId = master01;
shapes = (
{
closed = 1;
nodes = (
(559,-88,o),
(563,-88,o),
(566,-88,cs),
(574,-88,o),
(581,-89,o),
(589,-89,cs),
(615,-89,o),
(617,-70,o),
(634,-60,cs),
(649,-52,o),
(670,-51,o),
(683,-42,cs),
(696,-33,o),
(701,-11,o),
(713,1,cs),
(723,11,o),
(739,12,o),
(748,23,cs),
(759,36,o),
(758,60,o),
(766,74,cs),
(776,91,o),
(800,92,o),
(800,120,cs),
(800,130,o),
(798,141,o),
(798,152,cs),
(798,177,o),
(820,180,o),
(823,200,c),
(823,214,o),
(812,229,o),
(812,244,cs),
(812,257,o),
(823,269,o),
(823,283,cs),
(823,305,o),
(799,319,o),
(799,344,cs),
(799,352,o),
(800,360,o),
(800,369,cs),
(800,397,o),
(775,400,o),
(764,418,cs),
(758,428,o),
(763,450,o),
(757,460,cs),
(746,479,o),
(720,483,o),
(706,496,cs),
(694,508,o),
(696,526,o),
(683,535,cs),
(669,545,o),
(653,542,o),
(638,550,cs),
(619,560,o),
(617,586,o),
(590,586,cs),
(580,586,o),
(570,583,o),
(562,583,cs),
(538,583,o),
(531,608,o),
(505,608,cs),
(491,608,o),
(474,596,o),
(460,596,cs),
(447,596,o),
(429,608,o),
(416,608,cs),
(394,608,o),
(386,585,o),
(361,585,cs),
(352,585,o),
(343,587,o),
(335,587,cs),
(310,586,o),
(303,558,o),
(286,549,cs),
(270,541,o),
(248,543,o),
(235,532,cs),
(224,522,o),
(220,501,o),
(210,491,cs),
(199,480,o),
(178,480,o),
(170,467,cs),
(163,456,o),
(166,435,o),
(159,424,cs),
(149,407,o),
(124,401,o),
(124,376,cs),
(124,368,o),
(125,359,o),
(125,351,cs),
(125,332,o),
(100,311,o),
(100,290,cs),
(100,275,o),
(112,265,o),
(112,248,cs),
(112,233,o),
(100,218,o),
(100,204,cs),
(100,183,o),
(125,168,o),
(125,149,cs),
(125,141,o),
(122,133,o),
(122,124,cs),
(122,98,o),
(148,87,o),
(156,75,cs),
(167,57,o),
(160,46,o),
(171,28,cs),
(181,12,o),
(197,15,o),
(210,4,cs),
(223,-7,o),
(222,-31,o),
(240,-42,cs),
(256,-52,o),
(263,-43,o),
(286,-55,cs),
(299,-62,o),
(311,-91,o),
(337,-91,cs),
(344,-91,o),
(353,-89,o),
(361,-89,cs),
(385,-89,o),
(396,-114,o),
(416,-114,cs),
(431,-114,o),
(446,-102,o),
(462,-102,cs),
(477,-102,o),
(493,-112,o),
(508,-112,cs),
(525,-112,o),
(538,-94,o),
(556,-89,cs,{
name = hr00;
})
);
},
{
closed = 1;
nodes = (
(517,0,o),
(507,-13,o),
(495,-13,cs),
(484,-13,o),
(473,-6,o),
(462,-6,cs),
(450,-6,o),
(438,-15,o),
(426,-15,c),
(412,-13,o),
(405,3,o),
(386,3,cs),
(381,3,o),
(376,2,o),
(371,2,cs),
(352,2,o),
(345,23,o),
(334,28,cs),
(317,37,o),
(312,29,o),
(301,37,cs),
(288,45,o),
(289,63,o),
(279,71,cs),
(270,79,o),
(258,77,o),
(251,88,cs),
(243,101,o),
(248,110,o),
(240,123,cs),
(235,132,o),
(215,139,o),
(215,158,cs),
(215,163,o),
(217,169,o),
(217,174,cs),
(217,189,o),
(200,200,o),
(200,215,cs),
(200,226,o),
(208,237,o),
(208,248,cs),
(208,260,o),
(200,267,o),
(200,278,cs),
(200,294,o),
(217,308,o),
(217,324,cs),
(217,329,o),
(216,335,o),
(216,340,cs),
(216,359,o),
(235,363,o),
(242,376,cs),
(247,384,o),
(245,399,o),
(250,407,cs),
(257,416,o),
(271,416,o),
(279,424,cs),
(287,432,o),
(289,447,o),
(298,454,cs),
(307,462,o),
(323,460,o),
(334,466,cs),
(347,472,o),
(351,493,o),
(370,493,cs),
(376,493,o),
(381,492,o),
(387,492,cs),
(406,492,o),
(413,509,o),
(429,509,cs),
(439,509,o),
(451,500,o),
(461,500,cs),
(471,500,o),
(483,509,o),
(494,509,cs),
(513,509,o),
(516,491,o),
(535,491,cs),
(541,491,o),
(548,493,o),
(555,493,cs),
(575,493,o),
(576,474,o),
(589,467,cs),
(601,460,o),
(612,464,o),
(622,456,cs),
(632,449,o),
(630,436,o),
(639,428,cs),
(649,418,o),
(668,415,o),
(676,402,cs),
(680,394,o),
(677,379,o),
(681,371,cs),
(689,357,o),
(707,356,o),
(707,335,cs),
(707,329,o),
(706,323,o),
(706,318,cs),
(706,300,o),
(724,289,o),
(724,273,cs),
(724,264,o),
(716,254,o),
(716,245,cs),
(716,234,o),
(724,223,o),
(724,213,c),
(721,199,o),
(706,196,o),
(706,177,cs),
(706,171,o),
(707,164,o),
(707,157,cs),
(707,133,o),
(691,136,o),
(683,122,cs),
(677,111,o),
(677,94,o),
(670,84,cs),
(663,76,o),
(651,76,o),
(644,68,cs),
(636,60,o),
(632,45,o),
(622,38,cs),
(613,31,o),
(597,30,o),
(587,24,c),
(575,19,o),
(574,3,o),
(554,3,cs),
(549,3,o),
(544,4,o),
(539,4,cs),
(536,4,o),
(533,4,o),
(530,3,cs)
);
},
{
closed = 1;
nodes = (
(368,417,o),
(292,341,o),
(292,247,cs),
(292,153,o),
(368,77,o),
(462,77,cs),
(556,77,o),
(632,153,o),
(632,247,cs),
(632,341,o),
(556,417,o),
(462,417,cs)
);
},
{
closed = 1;
nodes = (
(505,117,l),
(420,117,l),
(420,292,l),
(366,292,l),
(366,360,l),
(557,360,l),
(557,292,l),
(505,292,l)
);
}
);
width = 923;
}
);
},
{
glyphname = at;
layers = (
{
layerId = master01;
shapes = (
{
closed = 1;
nodes = (
(832,485,o),
(705,592,o),
(523,592,cs),
(260,592,o),
(50,356,o),
(50,118,cs),
(50,-64,o),
(175,-172,o),
(357,-172,cs),
(458,-172,o),
(560,-136,o),
(643,-73,c),
(596,-50,l),
(528,-104,o),
(447,-135,o),
(368,-135,cs),
(221,-135,o),
(121,-39,o),
(121,123,cs),
(121,321,o),
(283,555,o),
(512,555,cs),
(659,555,o),
(761,459,o),
(761,295,cs),
(761,185,o),
(714,29,o),
(594,29,cs),
(568,29,o),
(557,39,o),
(557,65,cs),
(557,95,o),
(596,328,o),
(627,468,c),
(604,468,l),
(581,441,l),
(556,451,o),
(523,462,o),
(506,462,c),
(392,434,o),
(245,364,o),
(245,105,cs),
(245,22,o),
(268,-12,o),
(317,-12,cs),
(348,-12,o),
(391,3,o),
(442,27,cs),
(493,51,l),
(495,6,o),
(517,-12,o),
(562,-12,cs),
(719,-12,o),
(832,132,o),
(832,301,cs,{
name = hr00;
})
);
},
{
closed = 1;
nodes = (
(332,40,o),
(316,57,o),
(316,105,cs),
(316,250,o),
(356,405,o),
(474,405,cs),
(549,405,l),
(495,92,l),
(425,60,ls),
(399,48,o),
(376,40,o),
(358,40,cs)
);
}
);
width = 882;
}
);
unicode = 64;
},
{
glyphname = ampersand;
layers = (
{
layerId = master01;
shapes = (
{
closed = 1;
nodes = (
(252,542,o),
(301,620,o),
(401,620,cs),
(441,620,o),
(476,612,o),
(518,604,c),
(534,653,l),
(514,660,o),
(459,681,o),
(435,681,c),
(330,669,o),
(185,584,o),
(185,461,cs),
(185,440,o),
(187,418,o),
(192,395,c),
(90,316,o),
(20,210,o),
(20,118,cs),
(20,43,o),
(65,-14,o),
(172,-14,cs),
(221,-14,o),
(289,8,o),
(353,54,c),
(381,13,o),
(402,-12,o),
(409,-12,c,{
name = hr01;
}),
(533,7,l,{
name = hr02;
}),
(539,26,l),
(524,37,o),
(475,50,o),
(444,53,c),
(432,68,o),
(421,85,o),
(409,102,c),
(482,175,o),
(538,286,o),
(538,437,c),
(520,447,l),
(513,447,o),
(485,442,o),
(445,403,c),
(472,300,l),
(459,237,o),
(426,182,o),
(385,139,c),
(312,254,o),
(252,390,o),
(252,479,cs)
);
},
{
closed = 1;
nodes = (
(280,54,o),
(226,34,o),
(185,34,cs),
(122,34,o),
(96,74,o),
(96,126,cs),
(96,196,o),
(141,286,o),
(205,347,c),
(233,258,o),
(285,161,o),
(329,90,c)
);
}
);
width = 580;
}
);
unicode = 38;
},
{
glyphname = paragraph;
layers = (
{
layerId = master01;
shapes = (
{
closed = 1;
nodes = (
(384,642,l),
(298,153,ls),
(277,33,o),
(201,-81,o),
(103,-189,c),
(128,-210,l),
(257,-86,o),
(350,42,o),
(374,180,cs),
(455,642,l),
(526,642,l),
(536,679,l),
(537,683,o),
(447,712,o),
(343,712,cs),
(226,712,o),
(80,663,o),
(80,475,cs),
(80,356,o),
(156,304,o),
(257,302,c),
(317,642,l,{
name = hr00;
})
);
}
);
width = 463;
}
);
unicode = 182;
},
{
glyphname = section;
layers = (
{
layerId = master01;
shapes = (
{
closed = 1;
nodes = (
(269,358,o),
(273,346,o),
(273,331,cs),
(273,307,o),
(263,278,o),
(252,260,c),
(274,242,l),
(318,283,o),
(330,321,o),
(330,352,cs),
(330,411,o),
(167,493,o),
(149,563,c),
(151,635,o),
(225,662,o),
(292,662,cs),
(309,662,o),
(325,661,o),
(339,658,c),
(339,557,ls),
(339,543,o),
(373,543,o),
(381,543,c),
(407,697,l),
(367,707,o),
(328,712,o),
(291,712,cs),
(173,712,o),
(84,659,o),
(84,568,cs),
(84,513,o),
(140,462,o),
(195,418,cs),
(259,367,ls)
);
},
{
closed = 1;
nodes = (
(109,343,o),
(97,306,o),
(97,275,cs,{
name = hr01;
}),
(97,216,o),
(260,134,o),
(278,64,c),
(276,-8,o),
(202,-35,o),
(135,-35,cs),
(118,-35,o),
(102,-34,o),
(88,-31,c),
(88,70,ls),
(88,84,o),
(54,84,o),
(46,84,c),
(20,-70,l),
(60,-80,o),
(99,-85,o),
(136,-85,cs),
(254,-85,o),
(343,-32,o),
(343,59,cs),
(343,114,o),
(288,165,o),
(232,209,cs),
(168,259,ls),
(157,267,o),
(153,280,o),
(153,295,cs),
(153,319,o),
(164,347,o),
(175,366,c),
(153,384,l)
);
}
);
width = 427;
}
);
unicode = 167;
},
{
glyphname = copyright;
layers = (
{
layerId = master01;
shapes = (
{
closed = 1;
nodes = (
(30,343,o),
(156,217,o),
(313,217,cs),
(470,217,o),
(596,343,o),
(596,500,cs),
(596,657,o),
(470,783,o),
(313,783,cs),
(156,783,o),
(30,657,o),
(30,500,cs,{
name = hr00;
})
);
},
{
closed = 1;
nodes = (
(67,637,o),
(176,746,o),
(313,746,cs),
(450,746,o),
(559,637,o),
(559,500,cs),
(559,363,o),
(450,254,o),
(313,254,cs),
(176,254,o),
(67,363,o),
(67,500,cs)
);
},
{
closed = 1;
nodes = (
(434,434,o),
(407,433,o),
(404,424,c),
(393,375,l),
(374,364,o),
(355,359,o),
(326,359,cs),
(263,359,o),
(214,407,o),
(214,505,cs),
(214,563,o),
(234,613,o),
(260,635,c),
(279,642,o),
(304,646,o),
(326,646,cs),
(346,646,o),
(372,641,o),
(389,636,c),
(389,585,l),
(389,573,o),
(417,573,o),
(423,573,c),
(437,654,l),
(406,675,o),
(370,687,o),
(329,687,cs),
(235,687,o),
(158,624,o),
(158,506,cs),
(158,383,o),
(228,322,o),
(321,322,cs),
(366,322,o),
(406,333,o),
(436,355,c),
(440,434,l)
);
}
);
width = 626;
}
);
unicode = 169;
},
{
glyphname = registered;
layers = (
{
layerId = master01;
shapes = (
{
closed = 1;
nodes = (
(30,343,o),
(156,217,o),
(313,217,cs),
(470,217,o),
(596,343,o),
(596,500,cs),
(596,657,o),
(470,783,o),
(313,783,cs),
(156,783,o),
(30,657,o),
(30,500,cs,{
name = hr00;
})
);
},
{
closed = 1;
nodes = (
(67,637,o),
(176,746,o),
(313,746,cs),
(450,746,o),
(559,637,o),
(559,500,cs),
(559,363,o),
(450,254,o),
(313,254,cs),
(176,254,o),
(67,363,o),
(67,500,c)
);
},
{
closed = 1;
nodes = (
(226,364,l),
(185,353,l),
(185,347,o),
(185,328,o),
(198,328,cs),
(198,328,o),
(210,328,o),
(249,330,c),
(294,328,o),
(310,328,o),
(310,328,c),
(324,328,o),
(324,347,o),
(324,353,c),
(275,364,l),
(279,475,l),
(316,481,l),
(320,477,o),
(324,471,o),
(329,463,cs),
(401,328,l),
(463,328,ls),
(477,328,o),
(477,347,o),
(477,353,c),
(442,361,l),
(381,471,l),
(374,481,o),
(369,489,o),
(363,494,c),
(404,513,o),
(428,549,o),
(428,581,cs),
(428,634,o),
(391,681,o),
(323,681,c),
(247,678,l),
(198,681,l),
(185,681,o),
(185,660,o),
(185,655,c),
(226,645,l)
);
},
{
closed = 1;
nodes = (
(359,648,o),
(380,614,o),
(380,582,cs),
(380,548,o),
(357,513,o),
(304,512,c),
(280,512,l),
(275,645,l),
(313,649,l)
);
}
);
width = 626;
}
);
unicode = 174;
},
{
glyphname = trademark;
layers = (
{
layerId = master01;
shapes = (
{
closed = 1;
nodes = (
(435,347,l),
(450,347,o),
(450,366,o),
(450,372,c),
(403,383,l),
(414,611,l),
(516,371,l),
(534,371,l),
(646,617,l),
(656,383,l),
(609,372,l),
(609,366,o),
(609,347,o),
(624,347,c),
(680,349,l),
(737,347,l),
(751,347,o),
(751,366,o),
(751,372,c),
(710,383,l),
(694,663,l),
(734,673,l),
(734,680,o),
(734,700,o),
(720,700,c,{
name = hr01;
}),
(640,698,l),
(530,459,l),
(433,698,l),
(350,700,l),
(336,700,o),
(336,680,o),
(336,673,c),
(376,663,l,{
name = hr02;
}),
(361,383,l),
(319,372,l),
(319,366,o),
(319,347,o),
(334,347,c),
(381,349,l)
);
},
{
closed = 1;
nodes = (
(46,700,l,{
name = hr03;
}),
(35,700,o),
(24,700,o),
(24,691,cs),
(24,691,o),
(24,690,o),
(30,606,c),
(36,606,o),
(62,606,o),
(64,618,c),
(71,664,l),
(141,662,l),
(139,523,l),
(141,383,l),
(86,372,l),
(86,366,o),
(86,347,o),
(100,347,cs),
(100,347,o),
(126,347,o),
(167,349,c),
(212,347,o),
(231,347,o),
(231,347,c),
(245,347,o),
(245,366,o),
(245,372,c),
(190,383,l),
(192,523,l),
(190,662,l),
(261,664,l),
(267,618,l),
(268,606,o),
(295,606,o),
(301,606,c),
(307,690,o),
(307,691,o),
(307,691,cs),
(307,700,o),
(297,700,o),
(285,700,c),
(165,697,l)
);
}
);
width = 798;
}
);
unicode = 8482;
},
{
glyphname = degree;
layers = (
{
layerId = master01;
shapes = (
{
closed = 1;
nodes = (
(20,501,o),
(82,439,o),
(159,439,cs),
(236,439,o),
(298,501,o),
(298,578,cs),
(298,655,o),
(236,717,o),
(159,717,cs),
(82,717,o),
(20,655,o),
(20,578,cs,{
name = hr00;
})
);
},
{
closed = 1;
nodes = (
(66,630,o),
(107,670,o),
(159,670,cs),
(211,670,o),
(251,630,o),
(251,578,cs),
(251,526,o),
(211,485,o),
(159,485,cs),
(107,485,o),
(66,526,o),
(66,578,cs)
);
}
);
width = 318;
}
);
unicode = 176;
},
{
glyphname = bar;
layers = (
{
layerId = master01;
shapes = (
{
closed = 1;
nodes = (
(170,-208,l),
(170,673,l),
(100,673,l),
(100,-208,l,{
name = hr00;
})
);
}
);
width = 270;
}
);
unicode = 124;
},
{
glyphname = brokenbar;
layers = (
{
layerId = master01;
shapes = (
{
closed = 1;
nodes = (
(170,322,l),
(170,673,l),
(100,673,l),
(100,322,l,{
name = hr00;
})
);
},
{
closed = 1;
nodes = (
(170,-208,l),
(170,143,l),
(100,143,l),
(100,-208,l)
);
}
);
width = 270;
}
);
unicode = 166;
},
{
glyphname = dagger;
layers = (
{
layerId = master01;
shapes = (
{
closed = 1;
nodes = (
(251,506,l),
(268,641,l),
(221,641,l),
(189,506,l),
(56,506,l),
(48,457,l),
(174,440,l),
(141,298,l),
(100,-45,l),
(147,-45,l),
(226,298,l),
(243,442,l),
(367,457,l),
(375,506,l,{
name = hr00;
})
);
}
);
width = 348;
}
);
unicode = 8224;
},
{
glyphname = uni2113;
layers = (
{
layerId = master01;
shapes = (
{
closed = 1;
nodes = (
(112,467,o),
(40,126,o),
(40,23,cs),
(40,-7,o),
(53,-12,o),
(57,-12,c),
(181,7,l),
(187,26,l),
(173,37,o),
(126,50,o),
(97,53,c),
(97,112,o),
(185,497,o),
(226,579,c),
(211,588,l),
(202,588,o),
(172,586,o),
(138,573,c,{
name = hr00;
})
);
}
);
width = 234;
}
);
unicode = 8467;
},
{
glyphname = daggerdbl;
layers = (
{
layerId = master01;
shapes = (
{
closed = 1;
nodes = (
(116,90,l),
(100,-45,l),
(147,-45,l),
(178,90,l),
(309,90,l),
(318,139,l),
(193,155,l),
(226,298,l),
(243,442,l),
(367,457,l),
(375,506,l),
(251,506,l),
(268,641,l),
(221,641,l),
(189,506,l),
(56,506,l),
(48,457,l),
(174,440,l),
(141,298,l),
(123,154,l),
(-1,139,l),
(-10,90,l,{
name = hr00;
})
);
}
);
width = 348;
}
);
unicode = 8225;
},
{
glyphname = estimated;
layers = (
{
layerId = master01;
shapes = (
{
closed = 1;
nodes = (
(755,311,ls),
(755,490,o),
(594,635,o),
(395,635,cs),
(196,635,o),
(35,490,o),
(35,311,cs),
(35,132,o),
(196,-13,o),
(395,-13,cs),
(511,-13,o),
(615,37,o),
(680,113,c),
(628,113,l),
(571,48,o),
(489,6,o),
(396,6,cs),
(309,6,o),
(231,43,o),
(175,102,cs),
(170,107,o),
(167,114,o),
(167,122,cs),
(167,298,ls),
(167,301,o),
(169,302,o),
(172,302,cs),
(755,302,l,{
name = hr00;
})
);
},
{
closed = 1;
nodes = (
(623,323,o),
(622,320,o),
(619,320,cs),
(172,320,ls),
(169,320,o),
(167,323,o),
(167,325,cs),
(167,499,ls),
(167,508,o),
(170,515,o),
(176,521,cs),
(232,579,o),
(310,616,o),
(396,616,cs),
(481,616,o),
(558,580,o),
(614,524,cs),
(620,518,o),
(623,511,o),
(623,503,cs),
(623,325,ls)
);
}
);
width = 788;
}
);
unicode = 8494;
},
{
glyphname = Euro;
layers = (
{
layerId = master01;
shapes = (
{
closed = 1;
nodes = (
(169,251,l),
(170,262,o),
(173,282,o),
(177,298,c),
(320,298,l),
(327,335,l),
(186,335,l),
(212,422,o),
(260,501,o),
(344,501,cs),
(382,501,o),
(415,493,o),
(454,486,c),
(469,534,l),
(444,542,o),
(383,563,o),
(355,563,c),
(220,531,o),
(145,438,o),
(110,335,c),
(55,335,l),
(48,298,l),
(100,298,l),
(96,282,o),
(93,266,o),
(91,251,c),
(40,251,l),
(33,214,l),
(87,214,l),
(86,204,o),
(86,194,o),
(86,184,cs),
(86,52,o),
(149,-12,o),
(242,-12,cs),
(297,-12,o),
(358,4,o),
(403,27,c),
(403,165,l),
(379,161,l),
(369,140,o),
(355,102,o),
(344,62,c),
(317,47,o),
(288,37,o),
(259,37,cs),
(197,37,o),
(163,80,o),
(163,172,cs),
(163,184,o),
(163,199,o),
(164,214,c),
(305,214,l),
(312,251,l,{
name = hr00;
})
);
}
);
width = 484;
}
);
unicode = 8364;
},
{
glyphname = cent;
layers = (
{
layerId = master01;
shapes = (
{
closed = 1;
nodes = (
(242,38,l),
(257,38,ls),
(296,38,o),
(342,50,o),
(392,81,c),
(381,111,l),
(340,93,o),
(309,86,o),
(279,86,cs),
(270,86,o),
(262,87,o),
(254,88,c),
(344,457,l),
(378,455,o),
(410,448,o),
(447,441,c),
(463,490,l),
(443,497,o),
(385,517,o),
(359,518,c),
(373,574,l),
(335,574,l),
(320,515,l),
(201,482,o),
(90,393,o),
(90,214,cs),
(90,118,o),
(135,61,o),
(205,44,c),
(186,-35,l),
(224,-35,l,{
name = hr00;
})
);
},
{
closed = 1;
nodes = (
(165,357,o),
(204,444,o),
(306,455,c),
(219,101,l),
(184,121,o),
(165,163,o),
(165,222,cs)
);
}
);
width = 484;
}
);
unicode = 162;
},
{
glyphname = currency;
layers = (
{
layerId = master01;
shapes = (
{
closed = 1;
nodes = (
(129,200,o),
(195,134,o),
(276,134,cs),
(357,134,o),
(422,200,o),
(422,281,cs),
(422,362,o),
(357,427,o),
(276,427,cs),
(195,427,o),
(129,362,o),
(129,281,cs,{
name = hr00;
})
);
},
{
closed = 1;
nodes = (
(191,328,o),
(229,365,o),
(276,365,cs),
(323,365,o),
(360,328,o),
(360,281,cs),
(360,234,o),
(323,196,o),
(276,196,cs),
(229,196,o),
(191,234,o),
(191,281,c)
);
},
{
closed = 1;
nodes = (
(220,372,l),
(117,476,l),
(79,438,l),
(183,335,l)
);
},
{
closed = 1;
nodes = (
(325,193,l),
(428,89,l),
(466,127,l),
(362,230,l)
);
},
{
closed = 1;
nodes = (
(183,230,l),
(79,127,l),
(117,89,l),
(220,193,l)
);
},
{
closed = 1;
nodes = (
(362,335,l),
(473,445,l),
(435,483,l),
(325,372,l)
);
}
);
width = 552;
}
);
unicode = 164;
},
{
glyphname = dollar;
layers = (
{
layerId = master01;
shapes = (
{
closed = 1;
nodes = (
(317,186,o),
(328,162,o),
(328,137,cs),
(328,88,o),
(283,39,o),
(214,39,c),
(258,225,l),
(292,203,ls,{
name = hr00;
})
);
},
{
closed = 1;
nodes = (
(186,466,o),
(231,493,o),
(286,499,c),
(245,328,l),
(224,343,ls),
(205,356,o),
(186,376,o),
(186,408,cs)
);
},
{
closed = 1;
nodes = (
(112,71,o),
(113,102,o),
(113,121,cs),
(113,135,o),
(112,148,o),
(112,162,c),
(91,166,l),
(40,28,l),
(85,7,o),
(125,-5,o),
(164,-10,c),
(145,-88,l),
(183,-88,l),
(201,-12,l),
(305,-10,o),
(408,47,o),
(408,154,cs),
(408,195,o),
(383,237,o),
(338,267,cs),
(278,307,l),
(324,501,l),
(363,498,o),
(403,492,o),
(433,485,c),
(449,534,l),
(431,540,o),
(369,558,o),
(339,561,c),
(355,627,l),
(317,627,l),
(301,562,l),
(188,537,o),
(118,469,o),
(118,389,cs),
(118,348,o),
(136,309,o),
(175,282,cs),
(226,247,l),
(176,42,l),
(153,46,o),
(129,53,o),
(111,61,c)
);
}
);
width = 484;
}
);
unicode = 36;
},
{
glyphname = franc;
layers = (
{
layerId = master01;
shapes = (
{
closed = 1;
nodes = (
(336,476,o),
(433,476,o),
(475,476,c),
(489,493,o),
(500,512,o),
(506,532,c),
(500,549,l),
(456,538,o),
(338,532,o),
(222,532,c),
(101,536,l),
(95,514,l),
(121,500,o),
(151,486,o),
(179,478,c),
(98,57,l),
(68,48,o),
(40,37,o),
(13,26,c),
(21,0,l),
(274,0,l),
(280,22,l),
(245,37,o),
(203,51,o),
(167,60,c),
(212,246,l),
(409,259,l),
(418,302,l),
(223,302,l),
(248,482,l,{
name = hr00;
})
);
},
{
closed = 1;
nodes = (
(325,181,l),
(53,181,l),
(46,144,l),
(318,144,l)
);
}
);
width = 484;
}
);
unicode = 8355;
},
{
glyphname = lira;
layers = (
{
layerId = master01;
shapes = (
{
closed = 1;
nodes = (
(202,463,o),
(225,501,o),
(314,501,cs),
(356,501,o),
(391,493,o),
(434,486,c),
(449,534,l),
(422,542,o),
(344,563,o),
(313,563,c),
(238,550,o),
(132,490,o),
(132,314,cs),
(132,189,o),
(92,101,o),
(9,32,c),
(26,0,l),
(154,0,o),
(329,0,o),
(391,-4,c,{
name = hr01;
}),
(405,14,o),
(416,34,o),
(422,55,c),
(416,72,l),
(364,62,o),
(236,51,o),
(95,47,c),
(93,51,l),
(173,149,o),
(202,214,o),
(202,300,cs)
);
},
{
closed = 1;
nodes = (
(335,251,l),
(63,251,l),
(56,214,l),
(328,214,l)
);
},
{
closed = 1;
nodes = (
(71,298,l),
(343,298,l),
(350,335,l),
(78,335,l)
);
}
);
width = 484;
}
);
unicode = 8356;
},
{
glyphname = sterling;
layers = (
{
layerId = master01;
shapes = (
{
closed = 1;
nodes = (
(130,263,l),
(126,193,o),
(92,101,o),
(9,32,c),
(26,0,l),
(154,0,o),
(329,0,o),
(391,-4,c,{
name = hr01;
}),
(405,14,o),
(416,34,o),
(422,55,c),
(416,72,l),
(364,62,o),
(236,51,o),
(95,47,c),
(93,51,l),
(173,149,o),
(195,208,o),
(200,263,c),
(338,263,l),
(344,300,l),
(202,300,l),
(202,463,o),
(225,501,o),
(314,501,cs),
(356,501,o),
(391,493,o),
(434,486,c),
(449,534,l),
(422,542,o),
(344,563,o),
(313,563,c),
(238,550,o),
(132,480,o),
(132,330,cs),
(132,324,o),
(131,314,o),
(131,300,c),
(72,300,l),
(66,263,l)
);
}
);
width = 484;
}
);
unicode = 163;
},
{
glyphname = yen;
layers = (
{
layerId = master01;
shapes = (
{
closed = 1;
nodes = (
(196,263,l),
(210,220,l),
(209,216,l),
(97,216,l),
(90,179,l),
(202,179,l),
(177,55,l),
(139,46,o),
(103,36,o),
(69,26,c),
(77,0,l),
(345,0,l),
(351,22,l),
(320,34,o),
(284,46,o),
(251,54,c),
(276,179,l),
(390,179,l),
(397,216,l),
(283,216,l),
(285,224,l),
(310,263,l),
(405,263,l),
(411,300,l),
(335,300,l),
(466,499,l),
(515,521,l),
(516,524,o),
(516,529,o),
(516,534,cs),
(516,542,o),
(514,551,o),
(507,551,cs),
(448,547,l),
(384,551,o),
(383,551,o),
(383,551,cs),
(371,551,o),
(366,526,o),
(365,521,c),
(421,501,l),
(265,261,l),
(191,501,l),
(250,521,l),
(250,523,o),
(251,528,o),
(251,534,cs),
(251,542,o),
(249,551,o),
(242,551,cs),
(172,547,l),
(99,551,ls),
(89,551,o),
(82,528,o),
(80,521,c),
(120,499,l),
(184,300,l),
(111,300,l),
(105,263,l,{
name = hr00;
})
);
}
);
width = 484;
}
);
unicode = 165;
},
{
glyphname = plus;
layers = (
{
layerId = master01;
shapes = (
{
closed = 1;
nodes = (
(234,249,l),
(207,95,l),
(261,95,l),
(288,249,l),
(434,249,l),
(444,306,l),
(298,306,l),
(325,459,l),
(271,459,l),
(244,306,l),
(98,306,l),
(88,249,l,{
name = hr00;
})
);
}
);
width = 484;
}
);
unicode = 43;
},
{
glyphname = minus;
layers = (
{
layerId = master01;
shapes = (
{
closed = 1;
nodes = (
(434,249,l),
(444,306,l),
(98,306,l),
(88,249,l,{
name = hr00;
})
);
}
);
width = 484;
}
);
unicode = 8722;
},
{
glyphname = multiply;
layers = (
{
layerId = master01;
shapes = (
{
closed = 1;
nodes = (
(258,237,l),
(353,115,l),
(398,155,l),
(303,277,l),
(442,400,l),
(411,440,l),
(272,317,l),
(178,440,l),
(133,400,l),
(227,277,l),
(89,155,l),
(120,115,l,{
name = hr00;
})
);
}
);
width = 484;
}
);
unicode = 215;
},
{
glyphname = divide;
layers = (
{
layerId = master01;
shapes = (
{
closed = 1;
nodes = (
(249,376,o),
(262,362,o),
(281,362,cs),
(304,362,o),
(328,384,o),
(328,409,cs),
(328,428,o),
(314,443,o),
(295,443,cs),
(269,443,o),
(249,417,o),
(249,394,cs)
);
},
{
closed = 1;
nodes = (
(434,249,l),
(444,306,l),
(98,306,l),
(88,249,l)
);
},
{
closed = 1;
nodes = (
(205,126,o),
(218,112,o),
(237,112,cs),
(260,112,o),
(284,134,o),
(284,159,cs),
(284,178,o),
(270,193,o),
(251,193,cs),
(225,193,o),
(205,167,o),
(205,144,cs,{
name = hr01;
})
);
}
);
width = 484;
}
);
unicode = 247;
},
{
glyphname = equal;
layers = (
{
layerId = master01;
shapes = (
{
closed = 1;
nodes = (
(448,330,l),
(458,387,l),
(112,387,l),
(102,330,l,{
name = hr00;
})
);
},
{
closed = 1;
nodes = (
(420,168,l),
(430,225,l),
(84,225,l),
(74,168,l)
);
}
);
width = 484;
}
);
unicode = 61;
},
{
glyphname = greater;
layers = (
{
layerId = master01;
shapes = (
{
closed = 1;
nodes = (
(377,277,l),
(70,147,l),
(59,87,l),
(434,249,l),
(444,306,l),
(127,468,l),
(116,408,l,{
name = hr00;
})
);
}
);
width = 484;
}
);
unicode = 62;
},
{
glyphname = less;
layers = (
{
layerId = master01;
shapes = (
{
closed = 1;
nodes = (
(155,277,l),
(462,408,l),
(473,468,l),
(98,306,l),
(88,249,l),
(405,87,l),
(416,147,l,{
name = hr00;
})
);
}
);
width = 484;
}
);
unicode = 60;
},
{
glyphname = approxequal;
layers = (
{
layerId = master01;
shapes = (
{
closed = 1;
nodes = (
(422,381,o),
(397,372,o),
(369,372,cs),
(316,372,o),
(262,397,o),
(205,397,cs),
(169,397,o),
(133,386,o),
(99,353,c),
(114,313,l),
(138,331,o),
(163,338,o),
(191,338,cs),
(243,338,o),
(297,313,o),
(354,313,cs),
(388,313,o),
(425,324,o),
(461,359,c),
(447,399,l,{
name = hr00;
})
);
},
{
closed = 1;
nodes = (
(394,223,o),
(369,214,o),
(341,214,cs),
(288,214,o),
(234,239,o),
(177,239,cs),
(141,239,o),
(105,228,o),
(71,195,c),
(86,155,l),
(111,173,o),
(135,180,o),
(163,180,cs),
(215,180,o),
(269,155,o),
(326,155,cs),
(360,155,o),
(397,166,o),
(434,201,c),
(420,241,l)
);
}
);
width = 484;
}
);
unicode = 8776;
},
{
glyphname = asciitilde;
layers = (
{
layerId = master01;
shapes = (
{
closed = 1;
nodes = (
(408,303,o),
(383,294,o),
(355,294,cs),
(302,294,o),
(248,319,o),
(191,319,cs),
(155,319,o),
(119,308,o),
(85,275,c),
(101,238,l),
(125,256,o),
(149,263,o),
(177,263,cs),
(229,263,o),
(284,238,o),
(341,238,cs),
(375,238,o),
(412,249,o),
(448,284,c),
(434,321,l,{
name = hr00;
})
);
}
);
width = 484;
}
);
unicode = 126;
},
{
glyphname = logicalnot;
layers = (
{
layerId = master01;
shapes = (
{
closed = 1;
nodes = (
(449,306,l),
(398,306,l),
(368,137,l),
(419,137,l,{
name = hr00;
})
);
},
{
pos = (-19,0);
ref = minus;
}
);
width = 484;
}
);
unicode = 172;
},
{
glyphname = asciicircum;
layers = (
{
layerId = master01;
shapes = (
{
closed = 1;
nodes = (
(290,457,l),
(364,225,l),
(421,225,l),
(327,512,l),
(273,512,l),
(78,225,l),
(135,225,l,{
name = hr00;
})
);
}
);
width = 484;
}
);
unicode = 94;
},
{
glyphname = infinity;
layers = (
{
layerId = master01;
shapes = (
{
closed = 1;
nodes = (
(587,100,o),
(673,195,o),
(673,320,cs),
(673,406,o),
(625,454,o),
(558,454,cs),
(484,454,o),
(423,410,o),
(375,348,cs),
(368,339,l),
(338,400,o),
(302,454,o),
(232,454,cs),
(138,454,o),
(50,360,o),
(50,235,cs),
(50,149,o),
(100,100,o),
(167,100,cs),
(241,100,o),
(299,144,o),
(348,206,cs),
(356,217,l),
(386,155,o),
(422,100,o),
(493,100,cs,{
name = hr00;
})
);
},
{
closed = 1;
nodes = (
(130,175,o),
(99,208,o),
(99,257,cs),
(99,331,o),
(155,378,o),
(216,378,cs),
(269,378,o),
(299,335,o),
(325,283,c),
(306,259,ls),
(273,216,o),
(228,175,o),
(180,175,cs)
);
},
{
closed = 1;
nodes = (
(595,379,o),
(626,346,o),
(626,296,cs),
(626,223,o),
(570,176,o),
(509,176,cs),
(456,176,o),
(427,220,o),
(400,272,c),
(418,295,ls),
(452,338,o),
(496,379,o),
(545,379,cs)
);
}
);
width = 711;
}
);
unicode = 8734;
},
{
glyphname = integral;
layers = (
{
layerId = master01;
shapes = (
{
closed = 1;
nodes = (
(286,593,o),
(315,658,o),
(392,723,c),
(374,752,l),
(269,677,o),
(222,630,o),
(205,536,cs),
(131,118,ls),
(116,33,o),
(89,-32,o),
(10,-97,c),
(28,-126,l),
(134,-51,o),
(180,-4,o),
(197,90,cs),
(271,508,ls,{
name = hr00;
})
);
}
);
width = 332;
}
);
unicode = 8747;
},
{
glyphname = Omega;
layers = (
{
layerId = master01;
shapes = (
{
closed = 1;
nodes = (
(656,0,o),
(660,24,o),
(661,30,c),
(517,52,l),
(515,128,l),
(637,179,o),
(738,317,o),
(738,471,cs),
(738,619,o),
(626,712,o),
(473,712,cs),
(271,712,o),
(92,554,o),
(92,341,cs),
(92,241,o),
(134,161,o),
(210,125,c),
(184,52,l),
(32,30,l),
(31,27,o),
(31,22,o),
(31,16,cs),
(31,8,o),
(32,0,o),
(40,0,cs),
(233,0,l),
(283,142,l),
(201,199,o),
(174,269,o),
(174,340,cs),
(174,528,o),
(313,658,o),
(458,658,cs),
(574,658,o),
(652,582,o),
(652,462,cs),
(652,353,o),
(603,228,o),
(450,142,c),
(450,0,l),
(643,0,ls,{
name = hr00;
})
);
}
);
width = 710;
}
);
unicode = 8486;
},
{
glyphname = Delta;
layers = (
{
layerId = master01;
shapes = (
{
closed = 1;
nodes = (
(26,0,l),
(570,0,l),
(457,700,l),
(385,700,l,{
name = hr00;
})
);
},
{
closed = 1;
nodes = (
(483,58,l),
(113,58,l),
(394,619,l)
);
}
);
width = 620;
}
);
unicode = 8710;
},
{
glyphname = product;
layers = (
{
layerId = master01;
shapes = (
{
closed = 1;
nodes = (
(451,105,o),
(448,83,o),
(448,63,cs),
(448,14,o),
(464,-21,o),
(500,-86,c),
(532,-66,l),
(521,-20,o),
(514,0,o),
(514,30,cs),
(514,52,o),
(517,80,o),
(526,128,cs),
(616,639,l),
(685,639,ls),
(699,639,o),
(705,670,o),
(706,678,c),
(706,679,o),
(587,700,o),
(571,700,cs),
(299,700,ls),
(283,700,o),
(155,679,o),
(155,678,cs),
(154,674,o),
(153,665,o),
(153,657,cs),
(153,648,o),
(155,639,o),
(163,639,cs),
(233,639,l),
(108,-73,l),
(179,-73,l),
(304,639,l),
(544,639,l),
(456,132,ls,{
name = hr00;
})
);
}
);
width = 646;
}
);
unicode = 8719;
},
{
glyphname = summation;
layers = (
{
layerId = master01;
shapes = (
{
closed = 1;
nodes = (
(53,-73,l),
(424,-73,l),
(435,-7,l),
(106,-7,l),
(374,313,l),
(247,639,l),
(416,639,ls),
(432,639,o),
(560,660,o),
(560,661,cs),
(560,665,o),
(562,673,o),
(562,682,cs),
(562,691,o),
(560,700,o),
(552,700,cs),
(224,700,l),
(121,678,l),
(120,674,o),
(119,665,o),
(119,656,cs),
(119,647,o),
(121,639,o),
(128,639,cs),
(170,639,l),
(295,318,l),
(11,-22,l,{
name = hr00;
})
);
}
);
width = 483;
}
);
unicode = 8721;
},
{
glyphname = radical;
layers = (
{
layerId = master01;
shapes = (
{
closed = 1;
nodes = (
(521,643,l),
(564,647,o),
(671,662,o),
(671,663,cs),
(672,666,o),
(674,675,o),
(674,683,cs),
(674,692,o),
(672,700,o),
(665,700,cs),
(487,700,l),
(183,-45,l),
(121,350,l),
(43,350,l),
(120,-126,l),
(207,-126,l,{
name = hr00;
})
);
}
);
width = 430;
}
);
unicode = 8730;
},
{
glyphname = partialdiff;
layers = (
{
layerId = master01;
shapes = (
{
closed = 1;
nodes = (
(497,512,o),
(428,652,o),
(235,712,c),
(197,637,l),
(324,609,o),
(415,512,o),
(431,398,c),
(401,422,o),
(355,433,o),
(319,433,cs),
(181,433,o),
(43,311,o),
(43,151,cs),
(43,50,o),
(107,-12,o),
(207,-12,cs),
(408,-12,o),
(497,179,o),
(497,354,cs,{
name = hr00;
})
);
},
{
closed = 1;
nodes = (
(161,37,o),
(120,84,o),
(120,156,cs),
(120,257,o),
(191,383,o),
(298,383,cs),
(367,383,o),
(406,335,o),
(406,263,cs),
(406,164,o),
(333,37,o),
(229,37,cs)
);
}
);
width = 493;
}
);
unicode = 8706;
},
{
glyphname = mu;
layers = (
{
layerId = master01;
shapes = (
{
closed = 1;
nodes = (
(79,227,o),
(41,2,o),
(-10,-220,c),
(6,-227,l),
(14,-226,o),
(45,-218,o),
(80,-184,c),
(79,-159,o),
(79,-131,o),
(79,-101,c),
(88,16,l),
(95,-6,o),
(108,-17,o),
(127,-17,cs),
(179,-17,o),
(242,25,o),
(350,201,c),
(334,107,o),
(329,51,o),
(329,23,cs),
(329,-7,o),
(342,-12,o),
(346,-12,c),
(470,7,l),
(476,26,l),
(462,37,o),
(415,50,o),
(386,53,c),
(386,132,o),
(436,348,o),
(486,457,c),
(471,466,l),
(463,466,o),
(431,464,o),
(396,451,c),
(384,391,o),
(374,339,o),
(366,293,c),
(252,105,o),
(188,39,o),
(157,39,cs),
(142,39,o),
(132,45,o),
(132,67,cs),
(132,157,o),
(183,344,o),
(229,457,c),
(214,466,l),
(208,466,o),
(184,464,o),
(157,451,c,{
name = hr00;
})
);
}
);
width = 526;
}
);
unicode = 181;
},
{
glyphname = percent;
layers = (
{
layerId = master01;
shapes = (
{
closed = 1;
nodes = (
(189,-56,l),
(611,607,l),
(555,607,l),
(133,-56,l,{
name = hr00;
})
);
},
{
closed = 1;
nodes = (
(345,522,o),
(300,563,o),
(238,563,cs),
(155,563,o),
(65,484,o),
(65,340,cs),
(65,258,o),
(108,218,o),
(171,218,cs),
(288,218,o),
(345,344,o),
(345,440,cs)
);
},
{
closed = 1;
nodes = (
(150,260,o),
(136,281,o),
(136,326,cs),
(136,384,o),
(155,520,o),
(228,520,cs),
(260,520,o),
(275,498,o),
(275,454,cs),
(275,395,o),
(256,260,o),
(182,260,cs)
);
},
{
closed = 1;
nodes = (
(678,292,o),
(632,333,o),
(570,333,cs),
(487,333,o),
(398,253,o),
(398,108,cs),
(398,27,o),
(440,-12,o),
(502,-12,cs),
(619,-12,o),
(678,112,o),
(678,209,cs)
);
},
{
closed = 1;
nodes = (
(483,30,o),
(468,51,o),
(468,96,cs),
(468,155,o),
(487,290,o),
(561,290,cs),
(593,290,o),
(607,268,o),
(607,224,cs),
(607,165,o),
(589,30,o),
(515,30,cs)
);
}
);
width = 713;
}
);
unicode = 37;
},
{
glyphname = perthousand;
layers = (
{
layerId = master01;
shapes = (
{
closed = 1;
nodes = (
(189,-56,l),
(611,607,l),
(555,607,l),
(133,-56,l,{
name = hr00;
})
);
},
{
closed = 1;
nodes = (
(345,522,o),
(300,563,o),
(238,563,cs),
(155,563,o),
(65,484,o),
(65,340,cs),
(65,258,o),
(108,218,o),
(171,218,cs),
(288,218,o),
(345,344,o),
(345,440,cs)
);
},
{
closed = 1;
nodes = (
(150,260,o),
(136,281,o),
(136,326,cs),
(136,384,o),
(155,520,o),
(228,520,cs),
(260,520,o),
(275,498,o),
(275,454,cs),
(275,395,o),
(256,260,o),
(182,260,cs)
);
},
{
closed = 1;
nodes = (
(998,292,o),
(952,333,o),
(890,333,cs),
(807,333,o),
(718,253,o),
(718,108,cs),
(718,27,o),
(760,-12,o),
(822,-12,cs),
(939,-12,o),
(998,112,o),
(998,209,cs)
);
},
{
closed = 1;
nodes = (
(678,292,o),
(632,333,o),
(570,333,cs),
(487,333,o),
(398,253,o),
(398,108,cs),
(398,27,o),
(440,-12,o),
(502,-12,cs),
(619,-12,o),
(678,112,o),
(678,209,cs)
);
},
{
closed = 1;
nodes = (
(803,30,o),
(788,51,o),
(788,96,cs),
(788,155,o),
(807,290,o),
(881,290,cs),
(913,290,o),
(927,268,o),
(927,224,cs),
(927,165,o),
(909,30,o),
(835,30,cs)
);
},
{
closed = 1;
nodes = (
(483,30,o),
(468,51,o),
(468,96,cs),
(468,155,o),
(487,290,o),
(561,290,cs),
(593,290,o),
(607,268,o),
(607,224,cs),
(607,165,o),
(589,30,o),
(515,30,cs)
);
}
);
width = 1033;
}
);
unicode = 8240;
},
{
glyphname = lozenge;
layers = (
{
layerId = master01;
shapes = (
{
closed = 1;
nodes = (
(531,310,l),
(400,700,l),
(326,700,l),
(58,310,l),
(189,-79,l),
(263,-79,l,{
name = hr00;
})
);
},
{
closed = 1;
nodes = (
(452,310,l),
(223,-19,l),
(117,310,l),
(339,640,l)
);
}
);
width = 511;
}
);
unicode = 9674;
},
{
glyphname = commaaccent;
layers = (
{
layerId = master01;
shapes = (
{
closed = 1;
nodes = (
(79,-86,o),
(84,-109,o),
(84,-130,cs),
(84,-176,o),
(65,-211,o),
(39,-255,c),
(61,-271,l),
(91,-241,o),
(155,-167,o),
(168,-111,c),
(168,-75,o),
(156,-50,o),
(126,-50,cs),
(109,-50,o),
(82,-57,o),
(70,-61,c,{
name = hr00;
})
);
}
);
width = 197;
}
);
},
{
glyphname = commaaccent.salt;
layers = (
{
layerId = master01;
shapes = (
{
closed = 1;
nodes = (
(232,583,o),
(227,606,o),
(227,627,cs),
(227,673,o),
(246,708,o),
(272,752,c),
(250,768,l),
(220,738,o),
(156,664,o),
(143,608,c),
(143,572,o),
(155,547,o),
(185,547,cs),
(202,547,o),
(229,554,o),
(241,558,c,{
name = hr00;
})
);
}
);
width = 247;
}
);
},
{
glyphname = dieresis;
layers = (
{
layerId = master01;
shapes = (
{
closed = 1;
nodes = (
(255,659,o),
(223,652,o),
(223,652,c),
(223,652,o),
(204,608,o),
(204,576,cs),
(204,558,o),
(210,544,o),
(230,544,cs),
(249,544,o),
(279,553,o),
(279,553,c),
(280,553,o),
(298,596,o),
(298,625,cs),
(298,644,o),
(291,659,o),
(273,659,cs,{
name = hr00;
})
);
},
{
closed = 1;
nodes = (
(119,659,o),
(87,652,o),
(87,652,c),
(87,652,o),
(68,608,o),
(68,576,cs),
(68,558,o),
(74,544,o),
(94,544,cs),
(113,544,o),
(143,553,o),
(143,553,c),
(144,553,o),
(162,596,o),
(162,625,cs),
(162,644,o),
(155,659,o),
(137,659,cs)
);
}
);
width = 374;
}
);
unicode = 168;
},
{
glyphname = dotaccent;
layers = (
{
layerId = master01;
shapes = (
{
closed = 1;
nodes = (
(194,662,o),
(162,655,o),
(162,655,c),
(162,655,o),
(143,611,o),
(143,579,cs),
(143,561,o),
(149,547,o),
(169,547,cs),
(188,547,o),
(218,556,o),
(218,556,c),
(219,556,o),
(237,599,o),
(237,628,cs),
(237,647,o),
(230,662,o),
(212,662,cs,{
name = hr00;
})
);
}
);
width = 247;
}
);
unicode = 729;
},
{
glyphname = grave;
layers = (
{
layerId = master01;
shapes = (
{
closed = 1;
nodes = (
(150,530,o),
(80,618,o),
(16,714,c),
(4,706,o),
(-19,679,o),
(-24,659,c),
(-20,640,l),
(29,583,o),
(108,531,o),
(135,514,c),
(150,530,l,{
name = hr00;
})
);
}
);
width = 200;
}
);
unicode = 96;
},
{
glyphname = acute;
layers = (
{
layerId = master01;
shapes = (
{
closed = 1;
nodes = (
(92,519,o),
(171,571,o),
(220,628,c),
(224,647,l),
(219,667,o),
(196,694,o),
(184,702,c),
(120,606,o),
(50,518,o),
(50,518,c),
(65,502,l,{
name = hr00;
})
);
}
);
width = 200;
}
);
unicode = 180;
},
{
glyphname = hungarumlaut;
layers = (
{
layerId = master01;
shapes = (
{
closed = 1;
nodes = (
(282,519,o),
(361,571,o),
(410,628,c),
(414,647,l),
(409,667,o),
(386,694,o),
(374,702,c),
(310,606,o),
(240,518,o),
(240,518,c),
(255,502,l,{
name = hr00;
})
);
},
{
closed = 1;
nodes = (
(92,519,o),
(171,571,o),
(220,628,c),
(224,647,l),
(219,667,o),
(196,694,o),
(184,702,c),
(120,606,o),
(50,518,o),
(50,518,c),
(65,502,l)
);
}
);
width = 400;
}
);
unicode = 733;
},
{
glyphname = circumflex;
layers = (
{
layerId = master01;
shapes = (
{
closed = 1;
nodes = (
(232,687,o),
(224,688,o),
(216,688,cs),
(208,688,o),
(200,686,o),
(192,685,c),
(111,580,o),
(50,521,o),
(50,521,c),
(69,504,l),
(89,518,o),
(157,563,o),
(208,608,c),
(246,548,o),
(275,518,o),
(287,504,c),
(306,518,l),
(306,518,o),
(281,573,o),
(240,685,c,{
name = hr00;
})
);
}
);
width = 282;
}
);
unicode = 710;
},
{
glyphname = caron;
layers = (
{
layerId = master01;
shapes = (
{
closed = 1;
nodes = (
(135,510,o),
(143,509,o),
(151,509,cs),
(159,509,o),
(167,510,o),
(175,512,c),
(256,617,o),
(317,676,o),
(317,676,c),
(298,693,l),
(278,679,o),
(210,634,o),
(159,589,c),
(121,649,o),
(92,679,o),
(80,693,c),
(61,679,l),
(61,679,o),
(86,624,o),
(127,512,c,{
name = hr00;
})
);
}
);
width = 335;
}
);
unicode = 711;
},
{
glyphname = breve;
layers = (
{
layerId = master01;
shapes = (
{
closed = 1;
nodes = (
(172,576,o),
(152,610,o),
(142,663,c),
(111,656,l),
(122,563,o),
(142,512,o),
(196,512,cs),
(250,512,o),
(287,563,o),
(333,656,c),
(303,663,l),
(273,610,o),
(241,576,o),
(207,576,cs,{
name = hr00;
})
);
}
);
width = 318;
}
);
unicode = 728;
},
{
glyphname = ring;
layers = (
{
layerId = master01;
shapes = (
{
closed = 1;
nodes = (
(282,657,o),
(248,679,o),
(204,679,cs),
(147,679,o),
(93,640,o),
(93,570,cs),
(93,525,o),
(124,503,o),
(169,503,cs),
(234,503,o),
(282,551,o),
(282,612,cs,{
name = hr00;
})
);
},
{
closed = 1;
nodes = (
(220,646,o),
(235,632,o),
(235,606,cs),
(235,557,o),
(205,536,o),
(178,536,cs),
(156,536,o),
(140,549,o),
(140,575,cs),
(140,624,o),
(171,646,o),
(198,646,cs)
);
}
);
width = 285;
}
);
unicode = 730;
},
{
glyphname = tilde;
layers = (
{
layerId = master01;
shapes = (
{
closed = 1;
nodes = (
(383,619,o),
(361,613,o),
(340,613,cs),
(299,613,o),
(261,642,o),
(221,642,cs),
(191,642,o),
(159,625,o),
(125,568,c),
(144,551,l),
(167,574,o),
(189,580,o),
(211,580,cs),
(251,580,o),
(290,551,o),
(330,551,cs),
(360,551,o),
(391,567,o),
(426,625,c),
(407,642,l,{
name = hr00;
})
);
}
);
width = 416;
}
);
unicode = 732;
},
{
glyphname = macron;
layers = (
{
layerId = master01;
shapes = (
{
closed = 1;
nodes = (
(380,561,l),
(390,618,l),
(123,618,l),
(113,561,l,{
name = hr00;
})
);
}
);
width = 400;
}
);
unicode = 175;
},
{
glyphname = cedilla;
layers = (
{
layerId = master01;
shapes = (
{
closed = 1;
nodes = (
(181,-214,o),
(252,-168,o),
(252,-110,cs),
(252,-68,o),
(208,-61,o),
(208,-27,c),
(216,0,l),
(189,0,l),
(169,-47,l),
(169,-67,o),
(185,-78,o),
(185,-111,cs),
(185,-158,o),
(144,-198,o),
(109,-220,c),
(120,-237,l,{
name = hr00;
})
);
}
);
width = 410;
}
);
unicode = 184;
},
{
glyphname = ogonek;
layers = (
{
layerId = master01;
shapes = (
{
closed = 1;
nodes = (
(196,-23,o),
(134,-89,o),
(134,-161,cs),
(134,-202,o),
(159,-233,o),
(211,-233,cs),
(255,-233,o),
(303,-211,o),
(342,-165,c),
(323,-147,l),
(303,-172,o),
(266,-190,o),
(235,-190,cs),
(210,-190,o),
(190,-177,o),
(190,-142,cs),
(190,-101,o),
(235,-30,o),
(303,9,c),
(293,26,l,{
name = hr00;
})
);
}
);
width = 469;
}
);
unicode = 731;
},
{
glyphname = dieresis.case;
layers = (
{
layerId = master01;
shapes = (
{
closed = 1;
nodes = (
(255,903,o),
(223,896,o),
(223,896,c),
(223,896,o),
(204,852,o),
(204,820,cs),
(204,802,o),
(210,788,o),
(230,788,cs),
(249,788,o),
(279,797,o),
(279,797,c),
(280,797,o),
(298,840,o),
(298,869,cs),
(298,888,o),
(291,903,o),
(273,903,cs,{
name = hr00;
})
);
},
{
closed = 1;
nodes = (
(119,903,o),
(87,896,o),
(87,896,c),
(87,896,o),
(68,852,o),
(68,820,cs),
(68,802,o),
(74,788,o),
(94,788,cs),
(113,788,o),
(143,797,o),
(143,797,c),
(144,797,o),
(162,840,o),
(162,869,cs),
(162,888,o),
(155,903,o),
(137,903,cs)
);
}
);
width = 374;
}
);
},
{
glyphname = dotaccent.case;
layers = (
{
layerId = master01;
shapes = (
{
closed = 1;
nodes = (
(194,906,o),
(162,899,o),
(162,899,c),
(162,899,o),
(143,855,o),
(143,823,cs),
(143,805,o),
(149,791,o),
(169,791,cs),
(188,791,o),
(218,800,o),
(218,800,c),
(218,800,o),
(237,843,o),
(237,872,cs),
(237,891,o),
(230,906,o),
(212,906,cs,{
name = hr00;
})
);
}
);
width = 247;
}
);
},
{
glyphname = grave.case;
layers = (
{
layerId = master01;
shapes = (
{
closed = 1;
nodes = (
(169,799,o),
(78,866,o),
(-8,942,c),
(-18,932,o),
(-33,900,o),
(-33,879,c),
(-24,862,l),
(38,819,o),
(128,789,o),
(158,780,c),
(169,799,l,{
name = hr00;
})
);
}
);
width = 200;
}
);
},
{
glyphname = acute.case;
layers = (
{
layerId = master01;
shapes = (
{
closed = 1;
nodes = (
(72,777,o),
(162,807,o),
(224,850,c),
(233,867,l),
(233,888,o),
(218,920,o),
(208,930,c),
(122,854,o),
(31,787,o),
(31,787,c),
(42,768,l,{
name = hr00;
})
);
}
);
width = 200;
}
);
},
{
glyphname = hungarumlaut.case;
layers = (
{
layerId = master01;
shapes = (
{
closed = 1;
nodes = (
(262,777,o),
(352,807,o),
(414,850,c),
(423,867,l),
(423,888,o),
(408,920,o),
(398,930,c),
(312,854,o),
(221,787,o),
(221,787,c),
(232,768,l,{
name = hr00;
})
);
},
{
closed = 1;
nodes = (
(72,777,o),
(162,807,o),
(224,850,c),
(233,867,l),
(233,888,o),
(218,920,o),
(208,930,c),
(122,854,o),
(31,787,o),
(31,787,c),
(42,768,l)
);
}
);
width = 400;
}
);
},
{
glyphname = circumflex.case;
layers = (
{
layerId = master01;
shapes = (
{
closed = 1;
nodes = (
(232,931,o),
(224,932,o),
(216,932,cs),
(208,932,o),
(200,931,o),
(192,929,c),
(125,837,o),
(74,785,o),
(74,785,c),
(93,768,l),
(110,779,o),
(166,818,o),
(208,852,c),
(240,808,o),
(265,779,o),
(275,768,c),
(294,782,l),
(294,782,o),
(274,830,o),
(240,929,c,{
name = hr00;
})
);
}
);
width = 282;
}
);
},
{
glyphname = caron.case;
layers = (
{
layerId = master01;
shapes = (
{
closed = 1;
nodes = (
(136,769,o),
(144,768,o),
(152,768,cs),
(160,768,o),
(168,769,o),
(176,771,c),
(243,863,o),
(294,915,o),
(294,915,c),
(275,932,l),
(258,921,o),
(202,882,o),
(160,848,c),
(128,892,o),
(103,921,o),
(93,932,c),
(74,918,l),
(74,918,o),
(94,870,o),
(128,771,c,{
name = hr00;
})
);
}
);
width = 335;
}
);
},
{
glyphname = breve.case;
layers = (
{
layerId = master01;
shapes = (
{
closed = 1;
nodes = (
(172,837,o),
(152,871,o),
(142,924,c),
(111,917,l),
(122,824,o),
(142,773,o),
(196,773,cs),
(250,773,o),
(287,824,o),
(333,917,c),
(303,924,l),
(273,871,o),
(241,837,o),
(207,837,cs,{
name = hr00;
})
);
}
);
width = 318;
}
);
},
{
glyphname = ring.case;
layers = (
{
layerId = master01;
shapes = (
{
closed = 1;
nodes = (
(282,914,o),
(248,936,o),
(204,936,cs),
(147,936,o),
(93,897,o),
(93,827,cs),
(93,782,o),
(124,760,o),
(169,760,cs),
(234,760,o),
(282,808,o),
(282,869,cs,{
name = hr00;
})
);
},
{
closed = 1;
nodes = (
(220,903,o),
(235,889,o),
(235,863,cs),
(235,814,o),
(205,793,o),
(178,793,cs),
(156,793,o),
(140,806,o),
(140,832,cs),
(140,881,o),
(171,903,o),
(198,903,cs)
);
}
);
width = 285;
}
);
},
{
glyphname = tilde.case;
layers = (
{
layerId = master01;
shapes = (
{
closed = 1;
nodes = (
(383,863,o),
(361,857,o),
(340,857,cs),
(299,857,o),
(261,886,o),
(221,886,cs),
(191,886,o),
(159,869,o),
(125,812,c),
(144,795,l),
(167,818,o),
(189,824,o),
(211,824,cs),
(251,824,o),
(290,795,o),
(330,795,cs),
(360,795,o),
(391,811,o),
(426,869,c),
(407,886,l,{
name = hr00;
})
);
}
);
width = 416;
}
);
},
{
glyphname = macron.case;
layers = (
{
layerId = master01;
shapes = (
{
closed = 1;
nodes = (
(380,805,l),
(390,862,l),
(123,862,l),
(113,805,l,{
name = hr00;
})
);
}
);
width = 400;
}
);
},
{
glyphname = caron.salt;
layers = (
{
layerId = master01;
shapes = (
{
closed = 1;
nodes = (
(114,733,o),
(119,710,o),
(119,689,cs),
(119,643,o),
(100,608,o),
(74,564,c),
(96,548,l),
(126,578,o),
(190,652,o),
(203,708,c),
(203,744,o),
(191,769,o),
(161,769,cs),
(144,769,o),
(117,762,o),
(105,758,c,{
name = hr00;
})
);
}
);
width = 173;
}
);
},
{
glyphname = ethbar;
layers = (
{
layerId = master01;
shapes = (
{
closed = 1;
nodes = (
(15,376,l),
(8,333,l),
(366,333,l),
(373,376,l,{
name = hr00;
})
);
}
);
width = 383;
}
);
},
{
glyphname = dolar.alt;
layers = (
{
layerId = master01;
shapes = (
{
closed = 1;
nodes = (
(1238,186,o),
(1249,161,o),
(1249,137,cs),
(1249,88,o),
(1204,39,o),
(1135,39,c),
(1179,225,l),
(1213,203,ls,{
name = hr00;
})
);
},
{
closed = 1;
nodes = (
(1107,466,o),
(1152,493,o),
(1207,499,c),
(1166,328,l),
(1145,343,ls),
(1126,356,o),
(1107,376,o),
(1107,408,cs)
);
},
{
closed = 1;
nodes = (
(1033,71,o),
(1034,102,o),
(1034,121,cs),
(1034,135,o),
(1033,148,o),
(1033,162,c),
(1012,166,l),
(961,28,l),
(1006,7,o),
(1046,-5,o),
(1085,-10,c),
(1066,-88,l),
(1104,-88,l),
(1122,-12,l),
(1226,-10,o),
(1329,47,o),
(1329,154,cs),
(1329,195,o),
(1304,237,o),
(1259,267,cs),
(1199,307,l),
(1245,501,l),
(1284,498,o),
(1324,492,o),
(1354,485,c),
(1370,534,l),
(1352,540,o),
(1290,558,o),
(1260,561,c),
(1276,627,l),
(1238,627,l),
(1222,562,l),
(1109,537,o),
(1039,469,o),
(1039,389,cs),
(1039,348,o),
(1057,309,o),
(1096,282,cs),
(1147,247,l),
(1097,42,l),
(1074,46,o),
(1050,53,o),
(1032,61,c)
);
},
{
closed = 1;
nodes = (
(723,556,o),
(620,483,o),
(620,389,cs),
(620,348,o),
(638,308,o),
(677,282,cs),
(794,203,ls),
(819,186,o),
(830,162,o),
(830,137,cs),
(830,88,o),
(792,39,o),
(716,39,cs),
(681,39,o),
(634,49,o),
(613,61,c),
(614,71,o),
(615,102,o),
(615,121,cs),
(615,135,o),
(614,148,o),
(614,162,c),
(593,166,l),
(542,28,l),
(587,7,o),
(640,-12,o),
(703,-12,cs),
(817,-12,o),
(910,47,o),
(910,154,cs),
(910,195,o),
(885,237,o),
(840,267,cs),
(726,343,ls),
(707,356,o),
(688,376,o),
(688,408,cs),
(688,466,o),
(733,500,o),
(818,500,cs),
(857,500,o),
(905,492,o),
(935,485,c),
(951,534,l),
(933,540,o),
(859,558,o),
(824,561,c)
);
},
{
closed = 1;
nodes = (
(111,522,o),
(135,512,o),
(156,506,c),
(98,183,ls),
(94,163,o),
(91,144,o),
(91,127,cs),
(91,40,o),
(136,-12,o),
(244,-12,cs),
(363,-12,o),
(451,62,o),
(470,170,cs),
(528,504,l),
(549,511,o),
(572,522,o),
(592,534,c),
(587,551,l),
(427,551,l),
(420,530,l),
(441,519,o),
(462,512,o),
(484,505,c),
(426,169,ls),
(414,98,o),
(354,32,o),
(255,32,cs),
(180,32,o),
(161,77,o),
(161,128,cs),
(161,149,o),
(164,171,o),
(168,192,cs),
(224,507,l),
(246,513,o),
(268,521,o),
(288,530,c),
(282,551,l),
(96,551,l),
(92,534,l)
);
}
